<svg version="1" xmlns="http://www.w3.org/2000/svg" width="1333.333" height="1333.333" viewBox="0 0 1000.000000 1000.000000"><path d="M490.5 14.7c-11.5 3.1-21.4 13.2-24.2 24.6-1.7 7.2-1 15.5 2.3 27.2 6.9 23.8 9.8 40.4 10.9 61.5.2 3.6.4 7 .4 7.6.1.7 5.9 1 17.8 1l17.7-.1.2-8c.1-7.3.5-12.2 2-24.5 1-7.8 5-26.1 7.9-35.5 1.5-5 3.1-10.3 3.6-11.8.4-1.6.7-6.4.5-10.7-.6-13.4-7-23.6-18.6-29.5-3.5-1.8-16.4-3-20.5-1.8zM817.5 149c-10 2.3-20.4 11.8-27.9 25.6-10.1 18.3-23.7 37-36.4 50.1l-6 6.2 12.8 12.9 12.9 12.8 5.3-4.8c8.7-8 9-8.2 16-13.7 10.4-8.1 25.1-17.5 36.1-23.2C847.5 206 857 193.7 857 180c0-8.8-2.2-14.9-7.6-20.9-6-6.6-13.8-10.3-22.4-10.6-3.6-.1-7.8.1-9.5.5zM156.7 150.7c-5.7 1.9-14.4 10-17.1 15.7-2.5 5.2-3.1 14.2-1.6 20.8 2.7 11.4 10.5 19.6 27 28.5 7.5 4 26.7 15.8 28 17.3.3.3 3.9 3.2 8 6.5 7.2 5.7 12.8 10.6 17.5 15.1l2.2 2.2 8.5-8.7c4.6-4.7 10.1-10 12.1-11.8 2-1.8 3.7-3.7 3.7-4.3 0-.5-2.3-3.4-5.1-6.3-4.6-4.7-19-22-21.4-25.8-.5-.9-3.1-4.7-5.6-8.5-2.5-3.8-7.1-11.5-10.2-17.1-6.3-11.2-13.6-18.8-21.7-22.5-6.1-2.8-17.9-3.4-24.3-1.1zM475.5 171.9c-.2.2-3.5.5-7.2.7-8.4.6-14.8 1.2-14.8 1.4 0 .1-1.3.3-3 .5-3.2.3-9.4 1.3-19 3.1-6.8 1.3-31.3 7.6-34.8 8.9-2 .8-3.9 1.5-4.2 1.5-1.1 0-2.6.5-6 1.9-1.6.7-3.4 1.4-4 1.5-.5.1-4.3 1.5-8.3 3.1-8.1 3.2-8 2.6-3.5 12.5 1.4 3 7.6 17.2 13.8 31.5 10 23 13.6 31.5 14 32.2.1.2 3.5-1 7.7-2.6 7.1-2.8 25.4-8.5 30.8-9.7 5-1.1 10.1-2 15.9-3 1.8-.3 4.3-.8 5.5-1 11.6-2.3 44.6-3.8 44.6-2.1 0 .6.5.5 1.3 0 .6-.6 2.3-.9 3.7-.7 1.4.2 5.9.6 10 .9 7.2.6 12.5 1.2 12.5 1.5 0 .1 1.6.3 3.5.5 6 .7 9.7 1.3 17.3 3 1.2.3 3.6.8 5.2 1.1 5.3 1.1 16.8 4.4 25.9 7.5 4.8 1.7 9.2 2.7 9.6 2.2.4-.4 4-8.7 8-18.3 3.9-9.6 10.5-25.8 14.7-35.9 6.1-14.7 7.3-18.5 6.2-19.2-2.4-1.4-29.5-10.5-34.4-11.5-.5-.1-2.8-.6-5-1.2s-5.1-1.3-6.5-1.6c-1.4-.3-5.4-1.2-9-2-6.5-1.4-11.4-2.3-17.9-3.2-1.9-.2-4.6-.6-6-.9-3.8-.6-12.6-1.6-20.1-2.2-7.6-.6-46-1-46.5-.4zm25.9 34.7c4.6 4.5 1.9 11.6-4.6 12.2-2.9.2-4-.2-5.7-2.4-2.6-3.4-2.7-5.4 0-8.8 2.4-3 7.8-3.6 10.3-1zm77.4 10.7c2.7 2.5 2.9 7.6.4 10.8-2.4 2.9-8.5 3.1-11.2.3-4.2-4.2-2.8-11.9 2.4-13.3 3.7-.9 5.3-.5 8.4 2.2zm-153.4-.2c3.4 2.7 3.5 7.1.1 10.4-2.8 2.9-5.6 3.1-9.5.8-3.1-1.8-4.1-4.8-2.8-8.3 1.9-5.1 7.6-6.5 12.2-2.9zM624.3 196.2c-1 1.3-3.6 7.6-20.8 49.7-9.2 22.8-9.8 25-6.3 25.1.4 0 4.6 1.9 9.5 4.2 51.6 24.6 93.3 65 119.6 115.8 4.2 8.1 7 12.4 7.9 12.2.7-.2 3.3-1.3 5.8-2.4 2.5-1.1 5-2.2 5.5-2.3.6-.1 2.8-1 5-2 2.2-1.1 4.2-1.9 4.5-2 .3 0 1.4-.6 2.5-1.2s2.2-1.1 2.5-1.1c.8-.1 5.7-2 10.7-4.3 2.6-1.2 5.2-2.2 5.8-2.3.9-.2 4.9-1.9 14-6.1 1.7-.7 6-2.6 9.8-4.2 3.7-1.5 6.7-3 6.7-3.4 0-1.4-15.1-30.2-20.4-38.9-13.4-21.9-30.5-43.7-48.8-62-12.9-13-15.8-15.6-28.3-25.5-5.5-4.4-10.2-8.2-10.5-8.5-.7-.8-11.4-8.1-16.3-11.2-16.5-10.5-41.8-24.1-51.7-27.8-1.9-.7-4-1.7-4.6-2.2-.7-.5-1.5-.3-2.1.4zm24.7 49.1c1.1.9 2 2.3 2 3.1 0 .8.2 2.1.5 2.8.9 2.2-3 5.8-6.7 6.4-5.3.7-9.1-3.8-7.6-9.2 1.3-5.1 7.6-6.7 11.8-3.1zm60.4 44.8c3.3 1.5 5 5.7 3.7 9.2-1.1 2.9-5.7 5.7-8.1 4.9-3.2-1-6-4.6-6-7.6 0-3.9.9-5.2 4-6.5 3.3-1.3 3.5-1.3 6.4 0zm48.6 62.6c3.8 4.9.7 12.3-5.1 11.9-4-.3-7-3.5-7.1-7.6-.2-6.6 8.1-9.5 12.2-4.3zM348.2 205.6c-8.5 4.1-19.5 9.9-24.4 12.9-5 3-9.4 5.5-9.9 5.5-.4 0-.9.4-1.1.8-.1.4-4.8 3.9-10.3 7.6-5.5 3.8-11.6 8.2-13.5 9.8-1.9 1.6-4 3.2-4.5 3.6-7.9 5.6-36.9 33.4-43.7 42-2.1 2.6-4.8 5.8-6.1 7.2-1.2 1.4-3.3 4.1-4.7 6-1.3 1.9-2.7 3.7-3.1 4-2.8 2.2-21.6 31.8-28.8 45.5-3.6 6.8-13.1 27.1-13.1 28.1 0 .1 1.7.8 3.8 1.5 2 .6 5.6 2 7.9 3.1 2.3 1.1 4.8 2.1 5.5 2.2.7.2 3.3 1.1 5.8 2.2 2.5 1 4.8 1.8 5.3 1.6.4-.1.7.2.7.8 0 .5.9 1 1.9 1 1.1 0 2.3.4 2.6 1 .3.5 1.2 1 1.9 1 .8 0 3.1.8 5.2 1.7 2.2.9 4.1 1.7 4.4 1.8.3 0 7.2 2.7 15.3 5.9 8.1 3.2 14.9 5.7 15 5.5.1-.2 1.8-3.8 3.7-7.9 12.9-27.7 29.1-50.9 50.3-72.3 21.7-22 40.7-35.7 68.4-49.7l13.1-6.6-4.5-10.5c-12.3-28.4-17.8-41-20.4-46.7-1.6-3.5-2.9-6.5-2.9-6.8 0-.7-4-9.4-4.3-9.4-.1 0-7.1 3.4-15.5 7.6zm7.2 42.9c1.1 3 .6 6.2-1.2 8.5-1.7 2.1-3 2.4-8.8 1.8-2-.2-4.2-4.7-3.7-7.7.5-3.2 2.9-5.9 5.7-6.3 2.7-.5 7.2 1.6 8 3.7zm-62 44.5c4.3 4.3 1 12-5.2 12-5.1 0-9.3-7.4-6.4-11.6 2.5-3.7 8.1-3.9 11.6-.4zm-46.6 61.6c2.8 3.2 2.8 5.6-.1 9-1.7 2-3.3 2.7-5.6 2.6-6.7-.2-9.4-8-4.5-12.8 3-3.1 6.7-2.7 10.2 1.2zM493 300.2c-11.9 1.8-22.9 10.1-27.8 20.8-2.1 4.5-2.6 7-2.6 14 0 7.5.4 9.3 3.2 15 1.7 3.6 4.9 8.2 7 10.4 3.4 3.2 3.9 4.2 3.3 6.5-.4 1.4-.6 3.6-.5 4.8.1 1.3-.1 2.3-.5 2.4-4.9.6-9.1 3.3-9.1 5.8 0 2 3 5.1 4.8 5.1.8 0 1.2 1.9 1.2 5.1 0 2.7.4 4.8.8 4.5.4-.2 1.4-.1 2.2.4 1 .6 1.4 3.2 1.5 9.5.1 4.7-.2 8.8-.5 9-1.6 1-64.9.8-66.2-.2-4.1-3.2-10.4-3.5-15.8-.9-11.4 5.5-10.6 22 1.4 27 3.8 1.6 10 1.2 13.3-1 1.8-1.1 8.6-1.4 35.5-1.4h33.4l-.2 18.2c-.2 20.6-.1 19.9-1.1 19.6-1.7-.4-8.3 3.2-9.5 5.2-.7 1.1-3.1 2.5-5.3 3.1-2.3.6-5.7 2.8-8.1 5.2-2.3 2.3-6 5.3-8.3 6.6-3.4 2.1-7.2 7.4-6 8.5.9.8 6.8-.7 6.3-1.5-.3-.5-1-.7-1.5-.4-1.8 1.2-.8-1.5 1.3-3.5 3.5-3.3 6.9-4.6 12.3-4.8 5.3-.2 18.6 3.7 19.2 5.5.6 1.7-5.1 5.3-8.9 5.7-1.8.2-4.3 0-5.5-.5-1.3-.5-4.4-1.1-7-1.5-2.7-.3-5.6-.8-6.5-1-1-.1-1.8.2-1.8.7 0 .5.6.9 1.3.7 1.3-.2 7.1.8 13 2.3 3.8 1 3.9 1.1 2.1 3.1-3.2 3.5-5.7 4.2-15.4 4.4-5.3.1-11 .5-12.9.9-3.4.7-3.6.3-.8-3.3 1.6-2 1.7-5.4.2-4.2-.7.5-1.5.7-1.8.3-1-.9-5.6 4.8-6.4 7.7-.3 1.4-1.6 3.6-2.8 5-2.9 3.2-5.2 7.7-5.8 11.5-.3 1.7-1.2 4.4-2.1 6.1-.9 1.7-1.6 5.3-1.6 8s-.1 6.7-.1 8.9c-.3 8.4 0 11.7 1.4 13.8 1.9 3 4.7 11.4 3.9 12.1-.3.3.2.6 1 .6 1.9 0 9.4 7.3 11.3 11 1.8 3.6 6.5 8 8.4 8 .9 0 3.7 2 6.4 4.5 2.9 2.7 6.1 4.7 8.2 5.1 1.9.3 3.5 1 3.5 1.5s.7.9 1.5.9 1.5.5 1.5 1.2c0 .6.3.9.6.5.3-.3-.7-2.3-2.4-4.4-3.4-4.4-4.1-6.6-4.8-16.9-.5-7.6-.5-7.6 1.8-6.9 5.3 1.7 6.7 4.1 10.2 17.5 1.3 4.7 2.6 9.3 3 10.2.6 1.4.4 1.8-1 1.8-1.7 0-1.7.1-.3 1.6 1.7 1.6 1.4 4.9-1.2 16.5l-1 4.5-6.7-1.3c-9.8-2-26-7.6-36.8-12.8-5.2-2.4-9.7-4.4-10.1-4.4-.3 0-.9-.3-1.2-.8-.3-.4-2.6-2.2-5.1-3.8-14-9.4-24.9-21.9-32.5-37.4-4.2-8.6-9.4-25.5-8.2-26.8.4-.3 3.1-.5 6.1-.4 8.4.3 9.6-2.2 6.4-12.9-1.8-6.1-18.8-35-20.5-35-2.3 0-14.2 17.6-20.5 30.2-4.8 9.7-6.7 19.3-4 20 1.9.4 7.1.8 9.9.8l3.2-.1v8.8c0 16.1 2.4 26.1 10.1 41.8 3.3 6.6 8.5 15.4 11.6 19.5 6.8 9.1 20.4 22.4 28.2 27.7 3.1 2.1 5.9 4 6.2 4.4.7.7 10 6.9 10.5 6.9.2 0 2.1 1.2 4.2 2.6 3.4 2.3 24.5 12.9 33.3 16.7 1.9.8 7.8 2.9 13 4.7 14.7 4.9 22.8 9.1 30.1 15.7l2.5 2.3 3.9-3.4c4.9-4.4 24.2-14 30.5-15.1 1.4-.3 6-1.9 10-3.7 2.5-1 5.4-2.3 6.5-2.7 7-2.9 24.6-12 31.9-16.6 27.2-17.1 44.6-34.4 55.3-55 8.6-16.8 11.8-29.2 11.7-46.5 0-4.1.3-7.8.8-8.1.5-.3 3.3-.4 6.3-.2 5.2.3 5.5.1 7-2.8 1.7-3.1 1.5-7.2-.5-12.5-3.7-9.8-19.3-34.9-21.1-33.8-3.1 1.9-18.9 28.3-22 36.6-3.7 10.1-2.4 13.2 5.3 13.4 8.1.2 7.8.1 7.2 3.6-3 16.4-11.9 33.8-22.9 45-3.7 3.7-6.8 4.8-8 2.8-.4-.6-1.2-1-1.8-.8-1.9.3-10.6-1.3-11.1-2.1-.3-.4-3.8-.3-7.8.1-4 .5-10.2 1-13.7 1.2-3.5.2-6.8.9-7.3 1.4-.6.6 1.4.8 5.3.5l6.2-.4 5.1 5.4c4.8 5.1 10.1 12.7 7.9 11.4-1.3-.8-3.6 1.7-2.5 2.8.4.5-.1.5-1.1.2-1-.4-2.3-.7-2.8-.7s-2.7-1.7-4.9-3.8c-7.3-7.3-18.4-16.5-18.7-15.5-.2.6-2.2.6-5.4-.1-3.6-.7-5.5-.7-6.8.1-.9.6-3.3.9-5.2.7-8.6-1.1-9.9-.8-9.9 1.8 0 1.5-.3 1.9-1 1.2-1.6-1.6-1.6-1.7-3.6-27.4-2.1-27.2-4.1-104.9-3.5-134.7l.1-4.2 8.9.2c4.9.1 9.3.5 9.6.9.4.3-1.4 1.5-3.8 2.6-2.5 1.1-5.6 3.2-6.8 4.6-1.2 1.4-2.9 2.6-3.6 2.6-.7 0-1.3.7-1.3 1.5 0 1.3.4 1.4 2.1.5 2.4-1.3 14.7-.3 19.9 1.6.8.3 3.1.8 5 1 1.8.3 3.6.6 3.8.8.7.7-4.3 4.8-7.6 6.1-2.9 1.3-4 1.2-10-.7-3.7-1.2-7-2.1-7.4-2-.5.1-.8-.2-.8-.7 0-.5-1.1-1.1-2.5-1.3-1.6-.3-2.5-.1-2.5.7 0 .7 3.8 2.4 8.5 3.9s8.5 3.1 8.5 3.6c0 1.7-9.4 5.4-13.2 5.2-3.9-.2-5.1 1.3-2.2 2.5 1.5.6 1.5.7-.1 1.9-.9.7-1.4 1.8-1 2.4.5.8 1.6.4 3.4-1.3 2.1-2 5.4-3.7 8.1-4.2 1.3-.2 5.8-3 8-5 1.4-1.2 3.7-2.5 5.1-2.9 1.5-.3 4.9-2.5 7.5-4.9 2.7-2.4 5.7-4.6 6.7-5 1-.4 1.6-1.1 1.3-1.6-.3-.5.2-1.5 1-2.2.9-.8 2.7-3.1 4-5.1 1.3-2.1 3.6-4.5 5-5.5 3.7-2.4 12-2.4 16.9 0 2.2 1.1 5.9 2 8.2 2 14.2 0 20.2-18.2 8.8-26.8-4.3-3.4-11.2-3.9-16.4-1.2-3.3 1.6-8.8 2.5-6.5.9.6-.4 1.4-3 1.8-5.7.4-2.8 1-6.7 1.3-8.8.7-4.7-.4-9.7-1.7-7.7-.5.9-.5 1.9.2 2.7 1.3 1.6.3 8.9-1.6 11.8-1.2 1.8-7.7 5.3-12.9 6.9-1 .3-1.6 1-1.3 1.5.3.5-1.4 1.4-3.9 2-5.8 1.4-5.6 1.5-5.2-1.4.3-2.4 6.3-9.4 8-9.5.4 0 1.3-.5 2-1 .7-.6 3.3-2.4 6-4.1 2.6-1.7 4.7-3.5 4.7-4.1 0-.5-1.7.3-3.7 1.9-4.3 3.3-11 7.3-12.3 7.3-2.6 0 2.3-11.1 6.1-13.8 1-.7 2.4-2.2 3-3.3.9-1.8.8-1.9-.8-1.1-1 .6-2.9 2.2-4.2 3.6-2.6 2.8-4.1 2.6-4.1-.5 0-1.2-.5-1.9-1.2-1.7-1.6.6-1.8 2.6-.5 5.1.5 1.2.4 3-.4 4.9-.6 1.6-1.2 4.4-1.1 6.1 0 1.9-.9 4.4-2.2 6.2l-2.3 3-17.4-.1c-9.6-.1-17.6-.3-17.9-.3-.3-.1-.4-4-.3-8.8.2-10.6.1-10.3 1.1-10.2 3.5.6 4.2-.2 4.2-4.9 0-3.9.4-4.9 2.2-5.7 5.7-2.6 4.8-7.1-2.1-9.3-3.9-1.3-4.1-1.6-3.8-4.7.2-1.9.1-3.9-.3-4.6-.5-.7.9-2.9 3.6-5.5 2.4-2.4 5-5.7 5.9-7.3 1.4-2.7 1.7-2.9 4.7-2 1.7.5 4.4 2.2 5.8 3.7 1.4 1.6 3.7 3.6 5.1 4.5 1.4.9 3.1 3.4 3.8 5.4.8 2.1 2.2 4.4 3.2 5.1 1.1.7 1.9 2.4 1.9 3.8s.7 4.1 1.6 6.2c.9 2 1.7 4.8 1.8 6.2.2 3.9 1.9 2.6 3.1-2.4.9-3.4.9-4.3 0-3.9-1.3.4-2.5-2.7-2.5-6.7 0-1.4 1.1-7 2.5-12.4s2.5-11 2.5-12.5l.1-2.6 2.4 3c1.4 1.6 3 4.2 3.6 5.7 1.4 3.4 3 3.7 2.1.5-.3-1.2-3.9-5.6-8.1-9.7-5.6-5.6-7-6.6-5.4-4 1.3 2.3 1.9 4.7 1.6 7-.6 5.2-4.3 19.4-5.3 20.4-1.1 1.1-5-7.1-5-10.6-.2-8.5 1.2-24.3 2-24 2.3.5.7-.9-3.1-2.9l-4.2-2.1 2 2.6c1.7 2.1 2.1 4.1 2.2 11.3 0 4.8-.3 10.4-.7 12.3l-.8 3.4-2.5-3.4c-2.7-3.6-5.1-10.3-6.4-17.5-.4-2.1-1.3-5.2-2.1-6.7-2-3.9-1.9-6.9.4-6.1.9.3 2.5 1.4 3.5 2.5 1.9 1.9 2.9 2.2 4 1.2 1.4-1.4-.8-3.4-5.5-5-3.5-1.1-5.3-2.4-6.1-4.3-1.7-4.1-8.4-12.2-12.1-14.7-4.4-3-9.8-5.2-14.8-5.9-2.4-.4-4.5-.8-4.8-.9-.3-.1-3 .1-6 .6zm12 18.3c1.4.4 3.6 1.6 4.9 2.7l2.5 1.9-2.2.6c-1.2.3-2.2.8-2.2 1.2 0 .4-1.7.5-3.7.3-2.8-.2-5.6.6-10.7 3.2-3.8 2-7.5 3.6-8.2 3.6-.8 0-1.4.5-1.4 1.2 0 .6-.3.8-.7.5-.3-.4-1.7 0-3 .8-2.2 1.5-2.3 1.4-2.3-.8 0-1.3 1.3-4.4 2.9-7 5.1-7.9 14.7-11.2 24.1-8.2zm22.4 9c1.4.9 2.8 2.5 3.1 3.6.4 1 1.1 1.9 1.6 1.9.6 0 .7.4.4 1-.3.5-.2 1 .3 1s.9.6.9 1.2c.1.7.6 4.2 1.1 7.8.5 3.6.8 6.7.6 6.9-.6.7-3.4-2.1-3.4-3.4 0-.7-.7-1.9-1.6-2.6-.9-.7-3.6-4.4-6.1-8.2-2.5-3.8-5.3-7.6-6.4-8.5-3.9-3.4 4.5-4 9.5-.7zm-12.4 0c2 2.4.6 2.8-1.5.5-1-1.1-1.3-2-.8-2 .6 0 1.6.7 2.3 1.5zm-6.6 1c3.4.9 8.3 5.4 12 10.9 3.3 4.9 3.3 5.8 0 4.6-1.4-.6-2.9-.8-3.3-.5-.4.2-3.9-1.6-7.7-4.1-3.8-2.4-8.6-5.2-10.6-6.1-2.1-.9-3.8-2-3.8-2.4 0-.8 4-2.4 5.3-2.1.4.1.7-.2.7-.7 0-1 2.7-.8 7.4.4zm-5.7 9.8c2.9 1.7 6.5 4.1 8 5.3l2.6 2.1-2.9 1c-2.2.7-4.9.6-10.9-.8-7.9-1.7-19.6-5-20.4-5.6-.8-.6 3.9-4.4 7-5.7 4.1-1.7 9.8-.5 16.6 3.7zm-20.3 5.4c.3.4 1.2.8 1.9.9 6.5 1 16.8 4.6 16.4 5.8-.2.5-3.1 1.7-6.4 2.7l-6.1 1.7-3.7-2.5c-3.2-2.2-5.5-5.7-5.5-8.4 0-1.1 2.3-1.2 3.4-.2zm29.6 7.2c0 .5-1.4 1.8-3.2 2.9-2.5 1.6-3.5 1.8-5 .9-2.8-1.8-1.6-3.1 3.3-3.8 2.4-.3 4.5-.7 4.7-.7.1-.1.2.2.2.7zm66.6 66.5c-.7 7.5-3.3 10.3-11.6 12.2-4.2.9-19 1.2-19 .3 0-1.6 6.7-5.6 10.9-6.4 1.2-.2 2.8-.8 3.5-1.3.6-.5 2.8-1.2 4.9-1.6 2-.4 3.7-1.1 3.7-1.6 0-.4 1.2-1.3 2.8-1.8 1.5-.6 2-1.1 1.2-1.1-1.2-.1 1.4-2.1 3.8-3 .1-.1.1 1.9-.2 4.3zm-8.7 18.8c-3 4.3-5.8 6.8-7.8 6.9-2.7.2-15.4-.1-18.1-.5-1.4-.2-3.4-.4-4.4-.5-1.9-.1-1.9-.2.2-2.2 3-2.7 10-4.6 19.6-5.3 4.4-.3 8.2-.8 8.4-1.1.3-.3 1.4-.5 2.4-.5 1.8 0 1.8.2-.3 3.2zm-9 10.4c.2.2-1.5 2.2-3.9 4.4-5.3 5-9.3 5.1-25.4.4-2.6-.8-5.3-1.1-6-.8-.6.4-.3-.2.7-1.2 3.4-3.6 7.5-4.4 21.2-3.8 7.1.3 13.2.7 13.4 1zm-83.4 32.9c0 2.6-.6 2.9-4.2 1.9-3.1-.8-2.9-2 .5-3.2 3.8-1.4 3.7-1.5 3.7 1.3zm-.7 5.9c.3.4.7 2.5.8 4.7.3 4.9-1.1 5.7-5.6 3.4-1.8-.9-5.9-2.2-9.2-2.9-3.2-.6-5.9-1.6-5.9-2.1-.1-.6 1.3-1.8 3-2.7 1.7-1 3.1-1.6 3.1-1.4 0 .2 1.5 0 3.3-.3 3.1-.7 9.2.1 10.5 1.3zm-.2 35.8c-.9 24.6-1.9 42.5-3.2 60.1-.6 6.7-.4 8.1 1.2 10 1.9 2.2 1.9 2.2-.1.5-1.1-.9-3.9-2.1-6.2-2.7-2.4-.7-4.3-1.6-4.3-2 0-.5-1.9-2.2-4.3-3.7-6-4.1-14.9-13.8-14.2-15.6.3-.8-.2-3-1.3-4.9-2-3.6-2.3-14-.7-20.4.4-1.7.8-3.7.9-4.5.1-.8 1.4-4.1 2.9-7.4 3.2-7 3.2-6.9.7-6.1-1.2.4-2 .2-2-.4 0-2.3-17.5 2.1-20.7 5.1l-2.3 2.2 1-3.1c.6-1.6 2.8-4.8 4.9-7 4.4-4.5 11-6.5 19.6-5.7 6 .5 6.6 1.1 3.7 3.5-1.3 1-2.2 2.6-2 3.6.4 2.3 2.2 2.2 2.6-.2.7-3.4 3.4-6.6 7.2-8.5 2.1-1.1 4.9-3.3 6.3-5 1.4-1.6 3.2-3 3.9-3 .7-.1 2.4-.7 3.8-1.5s2.7-1.4 2.9-1.5c.2 0 0 8.2-.3 18.2zm-31.6 5.2c0 2.7-4.6 6.5-10.6 8.7-6.8 2.5-9.8 4.2-13.6 7.8-3.5 3.1-4.4 2.2-2.9-2.9 1.9-6.5 7.5-10.9 17.1-13.6 6.3-1.7 10-1.7 10 0zm-5.5 16.9c-.8 2-2.7 4.4-4.3 5.4-4.1 2.6-13.3 12.4-14.7 15.7-1.2 2.8-1.3 2.8-1.9.8-2.1-6.5.6-15.4 6.1-20.4 1.9-1.7 10.6-6 13.1-6.4.8-.1 1.7-.5 2-.9 1.4-1.4 1.2 2.2-.3 5.8zm-.8 12.5c.1 2.4-.6 4.9-2.1 7.2-1.2 1.9-3 5.2-3.9 7.2-1 2-2.1 3.8-2.7 4-.5.2-1.2 2.1-1.6 4.3-.3 2.2-.7 4.1-.9 4.3-.1.2-1.3-1.4-2.6-3.5-2.7-4.5-3.1-11.6-.9-15.8 1.6-3 13-12.8 13.9-11.9.3.3.6 2.2.8 4.2zm3.8 14.5c-.2 2.3-1.1 7.1-2 10.7-.9 3.5-1.5 8.6-1.3 11.2.2 2.6 0 4.8-.4 4.8-1.1 0-5.3-6.1-6.6-9.5-2.1-5.6.7-14.6 6.7-21.7 2.2-2.6 3.9-.5 3.6 4.5zm6 5.5c1.6 2.1 2.1 5 2.6 13.2.4 5.8 1 12.3 1.4 14.5l.8 3.9-3-2.4c-2.6-2.1-6.6-7.4-6.8-9-.1-.3-.5-2.7-.9-5.4-.9-5.5 1.1-17.6 2.8-17.6.6 0 2 1.3 3.1 2.8zm24.9 18.5c1.9 2.1 4.1 6.4 5.8 11.3 1.5 4.3 3 8.7 3.4 9.7.6 1.7.5 1.8-1.7.5-3.6-1.9-10.5-9-11.2-11.3-.4-1.1-.9-3.8-1.2-6-.4-2.2-.8-4.8-1.1-5.8-.9-2.9 2.6-2 6 1.6zm11.4 4.2c1.2.3 2.2 1.1 2.2 1.6s.6.9 1.3.9c.6 0 2.5 3.1 4.1 6.8 1.7 3.7 4.4 8.9 6.2 11.7 1.8 2.7 3.1 5.1 3 5.3-.7.7-9.5-3.5-12.2-5.8-3-2.5-5.9-7.9-8.4-15.5-.7-2.2-1.5-4.6-1.8-5.4-.3-.9.1-1.2 1.4-.8 1 .3 2.9.8 4.2 1.2zm15.7 4.5c2.5 1.1 4.4 2.4 4.1 2.8-.3.5 1 3.2 2.9 6.1 1.9 2.9 3.5 5.5 3.5 5.7 0 .3 1.6 2 3.5 4 4.3 4.3 4.5 5.5.6 4.4-1.6-.4-3.1-.7-3.3-.5-.2.2-2.1-.9-4.2-2.3-3.8-2.6-10-12.2-12.5-19.5-1.2-3.2-.7-3.3 5.4-.7zm82.4.3c2.7-.7 11.3 9.8 9.2 11.2-.6.3-1.5.4-2 .1-.5-.3-1.4.1-2.1.9-.7.8-.9 1.5-.4 1.5 1.3 0-1.9 2-3.2 2-.6 0-2.7-2.6-4.7-5.8-1.9-3.2-4.5-6.6-5.7-7.7l-2.2-2 3.3-.6c1.9-.3 4-.2 4.8.2.8.3 2.1.4 3 .2zm-35.9 3.2c1.9.4 5.1 2.1 7 3.7 10.7 9.1 14 12.2 14 13 0 1.4-8 .9-11.3-.7-1.8-.8-4.5-2.6-6.1-4-1.6-1.4-3.1-2.3-3.4-2.1-1 1.1 1.1 4.3 3.9 6 3.8 2.2 3.3 2.8-2.8 3.3-3.6.2-6-.3-9.8-2.2-5.3-2.7-12.5-10.5-13.6-14.9-.7-2.4-.5-2.5 2.4-2.1 1.8.2 4 .4 4.9.4 1 .1 4.5 2.9 7.8 6.3 6.9 7.2 8.3 6.4 1.5-.9-2.4-2.6-4.5-5.1-4.5-5.5 0-1.5 4.3-1.6 10-.3zm48.8 0c2.6.8 2.7 1.4.9 3.9-1.3 1.7-1.5 1.6-3.4-1.7-1.2-1.9-1.6-3.4-1-3.2.7.2 2.2.6 3.5 1zm-81.6 1.4c.4.1 2.1 1.4 3.8 3.1 3.5 3.5 4.2 3.7 3.4 1.2-.4-.9 1.5.5 4 3.3 2.6 2.7 6.1 6.5 7.8 8.2 2.2 2.2 2.7 3.3 1.8 3.5-.8 0-2.2.2-3 .3-.8.1-2.5-.2-3.7-.7-1.4-.4-2.3-.4-2.3.2 0 1.4-5-1.9-7.5-4.9-2.7-3.2-9.5-13.4-9.5-14.2 0-.5.9-.5 5.2 0zM569 626c0 .8-12.8 6-21.8 9-4.9 1.6-18.9 5-20.7 5-.2 0-.6-1.5-1-3.3-.4-1.7-.9-4.1-1.2-5.1-.4-1.5-.1-1.8 1.6-1.3 1.1.3 2.1.2 2.1-.2 0-.6 5.6-1 15.8-1.2 2.3 0 4.2-.4 4.2-.9 0-.4.8-.6 1.9-.3 1 .2 3.6-.1 5.8-.9 4.1-1.3 13.3-1.9 13.3-.8z"/><path d="M568.8 363.2c-.7 1.8-2.5 5.6-3.9 8.5-1.4 2.9-2.3 5.3-1.9 5.3.6 0 5.3-9.6 6.4-13.4 1.3-4 5.6 3.7 5.6 10.1 0 1.2-2 5.1-4.5 8.7-2.5 3.7-4.5 6.8-4.5 7.1 0 1.7 4.6-2.8 7.2-7 2.7-4.4 3.2-4.8 3.9-3 .4 1.1.8 3.2.8 4.7.1 1.8.6 2.8 1.6 2.8.9 0 1.5 1 1.6 2.7l.1 2.8.7-2.5c.5-1.6.3-3.1-.6-4.1-.7-.8-1.3-2.2-1.3-3-.1-.8-.9-3.2-2-5.4s-1.9-5.1-2-6.4c0-2.8-3.8-11.1-5-11.1-.5 0-1.4 1.4-2.2 3.2zM807 376c-.8.5-1.8.6-2.2.4-.4-.3-.8 0-.8.5 0 .6-.7 1.1-1.5 1.1s-2.3.4-3.3.9c-2.5 1.4-5.6 2.4-6.4 2.3-.5-.1-.8.2-.8.8 0 .5-.4 1-1 1-.5 0-7.4 2.8-15.2 6.1-7.9 3.4-14.7 6.2-15.3 6.4-.5.1-2.8 1-5 2-6.1 2.6-11.5 5-16.5 7-2.5 1-4.6 2-4.8 2.1-.1 0 .6 2.1 1.6 4.5 6.2 14.5 13.4 41 15.6 57.4 3.2 23.3 2.7 54.8-1 76.3-3 17.7-11.6 48.2-14.6 51.9-.7.9-.5 1.5.8 1.9 1.1.3 2.8 1 3.9 1.5 1.1.4 4.5 1.8 7.5 2.9 3 1.1 6.4 2.5 7.5 2.9 1.1.5 13.9 5.7 28.5 11.5l26.5 10.5 1.7-3.7c6.3-13.3 17-53.5 19.3-72.1.4-3 .8-6.2 1-7.3 2.6-13.5 2.7-66 .1-79.4-.2-1.2-.7-4.5-1.1-7.4-.4-2.9-.9-6.2-1.1-7.4-.2-1.2-.7-3.5-1-5.1-3.7-20.6-11.2-46.7-18.6-64.7-1.8-4.4-2.7-5.5-3.8-4.8zm-18.8 46.7c4.3 3.9.4 12.3-5.8 12.3-3.1 0-7.3-2.6-7.5-4.8 0-.4-.2-1.5-.4-2.4-.2-1 1-3.2 2.6-4.9 2.5-2.7 3.4-3 6.1-2.5 1.7.3 4 1.4 5 2.3zm7.1 73.2c.4.1 1.6 1 2.7 2.1 2.7 2.7 2.6 8-.1 11.4-1.8 2.3-2.7 2.7-5.6 2.3-4.3-.6-6.4-2.6-6.9-6.4-.7-5.6 3.2-10.6 7.6-9.7.8.1 1.8.3 2.3.3zm-11 77.2c7.3 2 8 11.3 1 13.6-8.3 2.7-14.1-5.2-8.6-11.8 2.8-3.3 2.5-3.2 7.6-1.8zM180.7 389.9c-5.1 13.9-10.2 31.2-13.3 45.6-.5 2.5-4.1 23.7-4.8 28.5-2.1 14.6-2.9 53.1-1.3 70 2.8 30.6 10.3 61.7 22.2 91.3 3.2 7.8 2.9 7.7 13.3 3.1 7.1-3.3 10.1-4.5 18.2-7.8 3.6-1.5 7.4-3.1 8.5-3.6 3.9-1.8 8-3.3 8.8-3.2.4.1.7-.2.7-.8 0-.6.3-.9.8-.8.7.1 2.3-.5 11.5-4.5 3.1-1.4 5.7-2.4 5.7-2.1 0 .2 1-.2 2.3-1.1 1.3-.8 2.7-1.2 3-.8.4.3.7.2.7-.4 0-.6 1-1.3 2.1-1.6 1.6-.4 2-1 1.4-2.4-17.6-41-22.8-84.6-16.1-133.8 1.7-12.2 6.2-29.8 11.7-45.3 2.9-8.4 3.5-11.4 2.2-11-.7.2-8.3-2.5-14.8-5.2-1.1-.5-4.5-1.9-7.5-3l-10-4c-3.9-1.6-7.4-2.9-9-3.5-.3-.1-1.8-.7-3.5-1.4-1.6-.7-5.9-2.4-9.5-3.8-3.6-1.3-8.1-3.1-10-4-1.9-.8-4.9-2.1-6.6-2.8l-3.1-1.3-3.6 9.7zm37.1 34.7c4.7 5.2 1.4 12.4-5.7 12.4-8.2 0-11.1-11.3-3.7-14.6 3.8-1.6 6.4-1 9.4 2.2zM206 500c1.6 1.7 2.7 3.6 2.6 4.3-1 5.4-4.6 8.4-9 7.3-8.7-2.2-6.9-14 2.2-14.5.8-.1 2.7 1.3 4.2 2.9zm11.7 74.2c2.9 2.7 3 6.7.2 10.2-1.6 2.1-2.9 2.6-6.2 2.6-4.6 0-6.5-1.9-7.4-7.2-1-6.4 8.4-10.3 13.4-5.6zM25.9 473.5c-12.1 3.2-20.8 11.2-24.2 22.6-4 13.2 3.3 29.2 16.1 35.8 2.3 1.2 4.2 1.8 4.2 1.4 0-.5.4-.3.8.4s3.7 1.5 7.2 1.9c3.6.3 6.8.8 7.3 1.1.4.2.7 0 .7-.5 0-.6.8-.8 1.8-.6 1.7.5 5.4-.4 22.7-5.6 3.9-1.1 8.1-2.2 9.5-2.5 6.2-1 9.6-1.6 11-2 4.2-1.2 20-2.8 37.5-3.8l4-.2.2-17.5.2-17.6h-5.7c-10.3-.1-26.6-1.5-32.8-2.9-1.2-.3-3.9-.7-6-1-2.1-.4-5.7-1.1-7.9-1.7-2.2-.5-5-1.2-6.2-1.4-1.2-.2-3.4-.9-4.8-1.4-1.4-.5-2.5-.8-2.5-.5 0 .2-1.6-.3-3.5-1.1s-3.5-1.2-3.5-.9c0 .3-.9.1-2.1-.5-4.6-2.5-17-3.3-24-1.5zM950.3 473c-1.8.4-3.3.5-3.3.3 0-.3-.6-.1-1.3.5-.7.6-2.4 1.3-3.8 1.5-1.4.3-4.8 1.3-7.4 2.2-5.5 1.8-17.7 4.5-27.5 6.1-1.9.3-4.6.7-6 1-3.9.6-19.9 1.8-26.1 1.8h-5.7l.2 17.4.2 17.4 10.5.3c5.7.2 11.8.6 13.4.8 1.7.3 5.5.8 8.5 1.2 5.4.6 10.5 1.4 12.5 1.9.6.2 2.8.6 5 1s5.1 1.2 6.5 1.7c1.4.5 3.4 1 4.5 1.2 1.1.2 4 1 6.5 1.7 2.5.8 4.7 1.4 5 1.5.3.1 2.4.7 4.7 1.4 5.6 1.5 13.8 1.9 18.8.8 9.1-2 11.5-2.8 11.5-3.9 0-.5.4-.7.8-.4 1.7 1 10.3-8.5 12.9-14 3.5-7.6 3.7-18.7.4-25.5-2.1-4.4-8.9-11.9-10.9-11.9-.5 0-1.5-.6-2.1-1.4-3-3.6-19.8-6.3-27.8-4.6zM734 601c0 .5-1.9 4.9-4.3 9.7-17.3 35-38.1 61.6-67.2 86-10.7 9-29.8 22.2-38 26.3-2.8 1.4-5.2 2.8-5.5 3.1-.3.3-4.9 2.7-10.2 5.3-5.4 2.5-9.8 4.9-9.8 5.2 0 .7 6.9 16.8 11.1 26.2 1.6 3.4 2.9 6.4 2.9 6.7 0 .2 1.1 2.8 2.4 5.7 3.5 7.9 12.6 28.8 13.7 31.5 1.2 3.1 3.2 2.6 18.9-5.3 23.8-11.9 53.9-31.6 68.6-44.9.6-.6 4.3-3.8 8.1-7.2 21.9-19.4 44.3-46 60.3-71.5 6.9-10.9 25.2-46.6 24.8-48-.4-1-72.3-29.8-74.4-29.8-.8 0-1.4.4-1.4 1zm22.5 41.6c1.8.7 4.2 5.2 4 7.4-.1.8-.3 2.1-.3 2.7-.2 1.5-5.4 4.3-7.8 4.3-3 0-6.4-4-6.4-7.6 0-5.5 5.2-8.8 10.5-6.8zm-44.3 61.8c1 .7 2.1 2.7 2.4 4.4 1.3 6.4-7.9 10.9-12.6 6.2-2.7-2.7-2.6-7.1.3-9.7 3.6-3.4 6.3-3.6 9.9-.9zm-61.3 46.7c2.6 2.4 2.7 6.9.4 9.8-4.7 5.5-14.2 1.6-12.9-5.2 1.2-6.5 7.8-8.9 12.5-4.6zM257.8 605.6c-1.6.8-2.8 1.2-2.8.9 0-.3-1 .1-2.2.9-1.2.9-3 1.6-4 1.6s-1.8.4-1.8 1c0 .5-.7 1-1.6 1-.8 0-4.1 1.2-7.2 2.7-3.1 1.5-5.9 2.7-6.2 2.8-2.1.5-6.5 2.3-12.7 5.1-4 1.9-7.6 3.4-7.9 3.4-.3 0-2.4.8-4.7 1.9-6.7 3-16 6.9-17.9 7.5-1.6.5-1.5 1 .8 6.2 9.5 21.6 26.5 48.8 44.3 70.9 9.2 11.5 35.1 38.3 42 43.5 1.8 1.4 4.3 3.4 5.5 4.5 7.3 6.8 30.2 22.8 45.6 31.7 14.7 8.6 39.6 20.8 42.3 20.8.6 0 2.5-3.3 4.1-7.3 1.6-3.9 3.4-8.6 4.1-10.2 1.2-2.8 13.3-32.3 19.7-48.2 2.8-6.9 3-9.3.6-9.3-4.3 0-42.7-21.6-52.8-29.7-.8-.6-5.3-4.2-10-7.9-26.5-20.9-54.3-55.8-69.2-86.9-2.2-4.7-4.3-8.5-4.7-8.5-.3.1-1.8.8-3.3 1.6zm-11 39.1c3.4 2.9 3.3 7.3-.2 10.8-2.7 2.7-6.9 2.6-9.8-.3-6.3-6.5 3.1-16.3 10-10.5zm45.5 59.4c5.9 2.7 5.6 10.4-.5 13-4.1 1.7-7.8.2-9.4-3.7-1.5-3.7-.2-7.2 3.6-9.1 3.1-1.6 3.3-1.6 6.3-.2zm59.2 45.9c.4.6 1 .8 1.5.5 1.1-.7 4 3.9 4 6.4 0 3.4-1.2 5.3-4.3 6.6-5.6 2.3-10.7-1.2-10.7-7.4 0-2.3 3-5.7 5.5-6.4 3.2-.8 3.3-.8 4 .3zM618.9 633.7c-.1.5-.2 3.9-.3 7.7-.1 6.6-.2 6.9-4 10.2-2.2 1.9-4.4 3.4-5 3.4-.6 0-4.5 1.6-8.6 3.5s-7.7 3-7.8 2.4c-.2-.5.5-2.6 1.5-4.7l1.9-3.8-2.3 1c-2.3 1.1-4 5-4.1 9.3 0 1.3-1.2 3.8-2.7 5.7-1.4 1.8-2.7 4.7-2.8 6.4-.2 2.7-3.7 6.7-3.7 4.2 0-1.8-2.9-1-4 1.1-.7 1.1-1 2.2-.8 2.4.2.2 6.3 3.8 13.6 8 12.6 7.3 13.4 7.6 14.7 5.9.8-1.1 1.2-2.5 1-3.2-.2-.6 0-1.2.5-1.2.4 0 1.4-1.7 2-3.8.7-2 1.8-4.4 2.6-5.2 1.8-2.1 5.4-10.8 5.4-13 0-1 .9-3.5 2.1-5.4 1.1-1.9 2.2-5.9 2.5-8.8.2-2.9.8-6.7 1.2-8.3.9-3.5.8-11.7-.2-13.3-.8-1.3-2.5-1.6-2.7-.5zm-2.5 23c-.7 4.2-2.7 7.9-5.7 10.5-1.5 1.3-13.9 5-17.9 5.3-.3 0-1 .3-1.4.7-.4.5-1.6.8-2.6.8-1.7 0-1.7-.2-.4-2.9 2.2-4.1 7.7-8.6 13.2-10.7 2.7-1 5.1-2 5.4-2.3.7-.8 8.3-4.9 9.3-5 .4-.1.5 1.6.1 3.6zm-4.7 16c-.9 5.4-5.6 10.9-10 11.7-1.5.2-3.7.8-4.8 1.1-2.1.7-11.9-3-11.9-4.5 0-.5 8.3-4.3 10.2-4.6.5-.1.9-.2 1.1-.3.1-.2 1.2-.4 2.4-.7 1.1-.2 4.3-1.2 7-2.3 6-2.5 6.4-2.5 6-.4zm-7 16.7c-1.1 2.3-1.2 2.3-4.3.7-3.6-1.8-3.3-2.8 1.1-3.3 4.1-.5 4.5-.2 3.2 2.6zM591.5 738.9c-1.2 1-11.7 4.6-12.7 4.3-.5-.1-.8.3-.8 1 0 .6-.3.9-.6.5-.3-.3-2.5.1-4.7.9-2.3.9-5.3 1.7-6.7 1.9-1.4.3-4.8 1.1-7.7 1.9-2.9.8-6.5 1.7-8 2-1.5.3-3.9.7-5.3 1-5.8 1.1-10.6 1.8-21.5 3.2-7.1.8-43.5.9-51.5 0-8.6-.9-18.2-2.3-22-3.1-1.4-.3-3.6-.8-5-1-1.4-.2-4.5-.9-7-1.6-2.5-.6-5.2-1.2-6-1.4-.8-.2-1.5-.4-1.5-.5 0-.1-1.1-.3-2.4-.6-2.3-.4-18.8-5.7-22.1-7.1-.8-.3-2-.7-2.6-.8-.6-.2-5.1 9.5-9.9 21.4-4.9 11.9-9.6 23.4-10.6 25.6-1.4 3.3-8.9 21.7-10.6 26.1-.2.6.6 1.4 1.9 1.7 1.3.3 5.3 1.6 9.1 3 3.7 1.4 6.7 2.4 6.7 2.1 0-.2 1.3.2 3 1.1 1.6.8 3.3 1.6 3.7 1.6.5.1 1.3.3 1.8.4.6.2 2.4.7 4 1.1 1.7.4 3.5.8 4 1 2.5.8 9.2 2.5 11 2.9 1.1.2 3 .6 4.3.9 3.2.8 6.2 1.5 10.2 2.2 1.9.4 4.4.8 5.5 1.1 1.1.2 3.6.6 5.5.8 8.8 1.3 11.6 1.8 13.5 2.1 6.5 1.2 21 1.8 42.5 1.8 21.7 0 29.9-.4 41.4-2 9.9-1.3 14.3-2 18.1-2.7 1.7-.4 4.4-.8 6-1.1 1.7-.3 4.5-1 6.3-1.5 1.8-.5 3.5-1 3.7-1 .3-.1.6-.1.8-.2.1 0 1.1-.2 2.2-.4s3.5-.8 5.3-1.3c1.8-.6 3.5-1.1 3.7-1.1.3-.1.6-.1.8-.2.1 0 1-.2 2-.4 2.8-.5 27.1-8.7 28.2-9.4.6-.4 2.9-1.3 5.3-2.1 2.3-.7 4.2-1.9 4.2-2.7 0-.7-3.6-9.5-8-19.4-4.4-10-8-18.3-8-18.5 0-.2-1.1-2.7-2.4-5.6-6.6-14.5-11.6-26.4-11.6-27.5 0-1.5-4.1-1.8-5.5-.4zm-12.1 40.6c4.9 4.6 2.3 12.4-4.5 13-4.9.4-8.1-2.2-8.4-7-.5-7.3 7.4-11.1 12.9-6zm-151.3 4.3c2.1 5.4-1.2 9.6-7.4 9.4-8.3-.2-10.1-11.9-2.1-14.1 3.8-1.1 8.1 1.1 9.5 4.7zm76.6 9.2c2.2 4.4-1.6 9.9-6.8 10-8 .1-9.9-11.2-2.4-14 2.7-1 7.7 1.1 9.2 4zM216 756.2c-3 2.8-8.6 7.6-12.5 10.7-3.8 3.1-7.2 5.9-7.5 6.2-1.3 1.4-21.3 14.1-28.5 17.9-15.8 8.6-22.3 14.2-27 23.7-2.6 4.9-3 6.9-3 13.3.1 12.7 6.4 23 17.6 28.6 4.5 2.3 6.7 2.8 13.4 2.8 6.6-.1 9.1-.5 14.3-2.9 7.9-3.6 16.4-12.4 21.7-22.6 8.2-16 22.3-35.6 35.6-49.6 3.2-3.4 6-6.7 6.1-7.2.2-.5-5.3-6.5-12.2-13.4l-12.6-12.5-5.4 5zM761.1 763.6L748.7 776l6.9 7.2c14.2 15 27 33 36.8 51.8 5.8 11 17.2 20.8 26.6 22.9 6.7 1.4 16.8.7 22-1.6 15.1-6.6 21.3-25.9 13.6-41.7-4.1-8.3-11.8-15.3-24.3-22-18.4-9.9-34.9-21.4-47.3-32.9-2.5-2.3-5.7-5.2-7-6.4l-2.5-2.1-12.4 12.4zM479.9 872.4c0 .6-.2 4.5-.4 8.6-1.2 23.2-3.9 38.1-11.9 64.5-5.5 18.1-.3 35.4 12.9 43.3 6.5 4 11.1 5.1 18.9 4.8 15.8-.7 27-11.3 29.8-28 1.3-7.9.5-13.2-4.5-30.1-1.9-6.6-3.7-13.4-4-15-.3-1.7-.8-4-1.1-5.2-.2-1.1-.8-4.3-1.2-7-.3-2.6-.8-5.6-1-6.6-.4-2.4-1.6-16.7-1.9-23.5-.2-3.1-.3-6-.4-6.3-.2-1.2-35.1-.6-35.2.5z"/></svg>