<svg id="beam" xmlns="http://www.w3.org/2000/svg" width="64.037" height="64.031" viewBox="0 0 64.037 64.031">
  <path id="Path_34" data-name="Path 34" d="M211.392,396.426h-5.8V395.3l-3.889,2.251,3.889,2.239v-1.113h5.8v1.113l3.889-2.239-3.889-2.251Z" transform="translate(-176.469 -345.864)" fill="#fff"/>
  <path id="Path_35" data-name="Path 35" d="M63.688,46.947a1.248,1.248,0,0,0-1.763-.125,11.42,11.42,0,0,1-4.315,2.851,7.621,7.621,0,0,1-5.553-.763L58.573,27a1.248,1.248,0,0,0-.55-1.426l-6.04-3.652V11.255A1.254,1.254,0,0,0,50.732,10h-2.5V6.253A1.254,1.254,0,0,0,46.98,5H43.041V1.251A1.254,1.254,0,0,0,41.79,0H22.156a1.254,1.254,0,0,0-1.251,1.251V5H16.966a1.254,1.254,0,0,0-1.251,1.251V10h-2.5a1.254,1.254,0,0,0-1.251,1.251V21.923L5.935,25.575A1.248,1.248,0,0,0,5.385,27s6.291,21.185,6.491,21.848c-.163-.363-2.114-.6-2.464-.65C5.773,47.723,3,49.549.383,51.825a1.248,1.248,0,0,0-.125,1.763,1.27,1.27,0,0,0,1.763.125c2.7-2.351,5.753-4.139,9.329-2.351,2.751,1.376,5.578,2.076,8.442,1.176a12.2,12.2,0,0,0,24.374-.7c0-.413-.025-.825-.063-1.226a6.967,6.967,0,0,1,2.176-.55,10.245,10.245,0,0,1,5.19,1.351,9.593,9.593,0,0,0,6.866.625,13.786,13.786,0,0,0,5.215-3.327A1.249,1.249,0,0,0,63.688,46.947ZM49.481,12.506V20.4L36.45,12.506ZM23.406,2.5H40.539V5H23.406Zm-5.19,5H45.729V10H18.216Zm-3.752,5H27.5L14.464,20.4Zm3.3,37.931a7.137,7.137,0,0,1-2.864-.225L8.061,27.2,30.722,13.481V39.707a12.239,12.239,0,0,0-10.78,10.08,7.971,7.971,0,0,1-2.176.65ZM31.973,61.78a9.942,9.942,0,1,1,9.942-9.942A9.951,9.951,0,0,1,31.973,61.78ZM49.731,47.9c0-.388-3.5-.375-3.739-.35a9.561,9.561,0,0,0-2.389.6,12.225,12.225,0,0,0-10.38-8.442V13.481L55.884,27.213Z" transform="translate(0.049)" fill="#fff"/>
</svg>
