<svg xmlns="http://www.w3.org/2000/svg" width="11.208" height="22.618" viewBox="0 0 11.208 22.618">
  <path id="facebook_icon" data-name="facebook icon" d="M.809,12.907H2.185a.261.261,0,0,1,.243.243v8.659a.812.812,0,0,0,.809.809H6.393a.812.812,0,0,0,.809-.809v-8.7a.261.261,0,0,1,.243-.243H9.711a.793.793,0,0,0,.809-.688l.526-3.156a.854.854,0,0,0-.809-.971H7.566A.363.363,0,0,1,7.2,7.688V5.665a.726.726,0,0,1,.809-.809H10.4a.812.812,0,0,0,.809-.809V.809A.812.812,0,0,0,10.4,0H7.526c-5.22,0-5.1,4.249-5.1,4.855V7.809a.261.261,0,0,1-.243.243H.809A.812.812,0,0,0,0,8.861v3.156A.858.858,0,0,0,.809,12.907Z" fill="#fff"/>
</svg>
