<svg xmlns="http://www.w3.org/2000/svg" width="64.667" height="64.677" viewBox="0 0 64.667 64.677">
  <g id="_492579_1_" data-name="492579[1]" transform="translate(0.028)">
    <g id="Group_5" data-name="Group 5" transform="translate(-0.028 0)">
      <path id="Path_38" data-name="Path 38" d="M60.256,40.183l-7.289-4.56a2.376,2.376,0,0,1-1.251-2.034V30.633A16.386,16.386,0,0,0,55.7,23.849a3.837,3.837,0,0,0,1.415-2.981V17.142a3.765,3.765,0,0,0-1.074-2.514V9.638c0-.1-.657-9.638-11.862-9.638C39.4,0,36.6,1.781,34.966,3.575A14.981,14.981,0,0,0,24.76,0C10.031.126,9.1,15.057,9.083,15.247,8.894,25.062,2.312,34.663.3,37.378a1.6,1.6,0,0,0,.227,2.173c2.552,2.2,7.781,2.489,8.059,2.5h8.628a.678.678,0,0,1-.025.392l-.126.265a3.243,3.243,0,0,1-.733,1.175L9.323,46.537a11.835,11.835,0,0,0-7.339,8.4L0,63.35a1.069,1.069,0,0,0,.2.91,1.091,1.091,0,0,0,.846.4h0A1.068,1.068,0,0,0,2.1,63.83L2.4,62.5l1.655-7.087a9.676,9.676,0,0,1,6.013-6.872l7.087-2.691c.038-.013.063-.025.1-.038a4.176,4.176,0,0,0,1.756-2.211l.114-.253A2.837,2.837,0,0,0,19,40.764a1.838,1.838,0,0,0-1.566-.9H8.641c-1.2-.063-4.5-.48-6.291-1.667,2.4-3.31,8.7-12.935,8.893-22.877.025-.531.821-13.062,13.516-13.163A12.825,12.825,0,0,1,34.2,5.786a1.353,1.353,0,0,0,.227.24,16.08,16.08,0,0,1,3.865,9.259c.189,9.979,6.48,19.605,8.893,22.94-1.794,1.175-5.078,1.6-6.24,1.655H32.1a1.817,1.817,0,0,0-1.554.9,2.8,2.8,0,0,0-.139,2.59l.114.24a4.168,4.168,0,0,0,1.768,2.223.869.869,0,0,0,.1.038l7.087,2.691a9.513,9.513,0,0,1,3.865,2.691,1.006,1.006,0,0,0,.189.215,9.672,9.672,0,0,1,1.958,3.966l1.642,7.087.3,1.326a1.068,1.068,0,0,0,1.048.834h0a1.091,1.091,0,0,0,.846-.4,1.069,1.069,0,0,0,.2-.91L47.573,54.95a11.971,11.971,0,0,0-7.339-8.4L33.223,43.9a3.257,3.257,0,0,1-.745-1.187l-.126-.253a.722.722,0,0,1-.025-.4h8.666c.227-.013,5.47-.3,8.021-2.5a1.6,1.6,0,0,0,.215-2.16c-2.009-2.716-8.6-12.316-8.792-22.169A19.225,19.225,0,0,0,36.457,5.154c1.705-1.983,4.282-2.981,7.706-2.981,9.12,0,9.689,7.3,9.7,7.541V15.1a1.063,1.063,0,0,0,.354.8,1.836,1.836,0,0,1,.72,1.263v3.726a1.734,1.734,0,0,1-.8,1.44,1.063,1.063,0,0,0-.467.67A14.316,14.316,0,0,1,49.9,29.408a1.063,1.063,0,0,0-.354.8v3.4a4.462,4.462,0,0,0,2.324,3.891l7.289,4.56a6.388,6.388,0,0,1,3.335,5.609V50.68a1.073,1.073,0,0,0,1.074,1.074h0a1.073,1.073,0,0,0,1.074-1.074V47.661A8.468,8.468,0,0,0,60.256,40.183Z" transform="translate(0.028 0)" fill="#fff"/>
    </g>
  </g>
</svg>
