<svg id="length" xmlns="http://www.w3.org/2000/svg" width="82.094" height="64.031" viewBox="0 0 82.094 64.031">
  <path id="Path_36" data-name="Path 36" d="M60.788,131.908a19.223,19.223,0,0,0,10.581-2.9,16.537,16.537,0,0,1,9.25-2.565,1.363,1.363,0,1,0,0-2.725,19.223,19.223,0,0,0-10.581,2.9c-.593.337-1.186.657-1.812.962L81.341,111.82a2.733,2.733,0,0,0-2.084-4.5H67.393L52.981,96.8,52.292,95.4a8.15,8.15,0,0,0-7.343-4.537H30.857l-1.363-2.741h7.359a1.363,1.363,0,1,0,0-2.725H21.8a1.363,1.363,0,1,0,0,2.725h4.633L27.8,90.867h-6a4.1,4.1,0,1,0,0,8.208h1.892l-4.1,8.208h-1.2a2.756,2.756,0,0,0-2.2,1.09l-3.27,4.377H10.561a1.4,1.4,0,0,0-1.154.625L2.754,123.748c-.481-.032-.946-.048-1.475-.048a1.363,1.363,0,1,0,0,2.725,16.537,16.537,0,0,1,9.25,2.565,19,19,0,0,0,10.581,2.9,18.041,18.041,0,0,0,4.361-.4,15.438,15.438,0,0,0-.16,2.293,16.162,16.162,0,0,0,.3,3.078,16.976,16.976,0,0,1-4.5.513,16.625,16.625,0,0,1-9.266-2.565,18.96,18.96,0,0,0-10.581-2.9,1.363,1.363,0,1,0,0,2.725,16.537,16.537,0,0,1,9.25,2.565,19,19,0,0,0,10.581,2.9,18.78,18.78,0,0,0,5.274-.609,15.634,15.634,0,0,0,29.114.016,18.848,18.848,0,0,0,5.274.609,19.091,19.091,0,0,0,10.581-2.9,16.537,16.537,0,0,1,9.25-2.565,1.363,1.363,0,1,0,0-2.725,19.223,19.223,0,0,0-10.581,2.9,16.537,16.537,0,0,1-9.25,2.565,17.052,17.052,0,0,1-4.5-.513,16.161,16.161,0,0,0,.3-3.078,18.153,18.153,0,0,0-.16-2.293A20.279,20.279,0,0,0,60.788,131.908Zm-9.33-32.833,3.767,2.741H39.594a1.362,1.362,0,0,1-1.363-1.363V99.091H51.458ZM21.8,96.334a1.363,1.363,0,1,1,0-2.725H44.933a5.448,5.448,0,0,1,4.729,2.741H21.8Zm4.954,2.741H35.49v1.363a4.112,4.112,0,0,0,4.1,4.1h19.4l3.767,2.741H22.649Zm-8.369,10.934H46.424v1.363a1.362,1.362,0,0,1-1.363,1.363H16.332Zm22.573,36.536A12.745,12.745,0,1,1,53.7,133.8,12.757,12.757,0,0,1,40.957,146.545Zm0-28.392A15.674,15.674,0,0,0,26.24,128.477a16.253,16.253,0,0,1-5.13.689,16.625,16.625,0,0,1-9.266-2.565,21.078,21.078,0,0,0-6.108-2.469l5.547-8.657H45.029a4.112,4.112,0,0,0,4.1-4.1v-1.363h4.1v4.1a1.363,1.363,0,1,0,2.725,0v-4.1H58.7v4.1a1.363,1.363,0,1,0,2.725,0v-4.1h2.741v4.1a1.363,1.363,0,1,0,2.725,0v-4.088h12.3L63.434,128.99a21.708,21.708,0,0,1-2.693.176,16.154,16.154,0,0,1-5.114-.689A15.564,15.564,0,0,0,40.957,118.153Z" transform="translate(0.1 -85.4)" fill="#fff"/>
  <path id="Path_37" data-name="Path 37" d="M214.125,370.727h-7.439V369.3l-4.986,2.87,4.986,2.886v-1.443h7.439v1.443l4.986-2.886-4.986-2.87Z" transform="translate(-169.348 -323.786)" fill="#fff"/>
</svg>
