<svg xmlns="http://www.w3.org/2000/svg" width="278" height="70.549" viewBox="0 0 278 70.549">
  <g id="Logo" transform="translate(-373 -41)">
    <g id="Group_304" data-name="Group 304" transform="translate(457.368 54.536)">
      <g id="Group_303" data-name="Group 303">
        <path id="Path_39" data-name="Path 39" d="M162.976,50.587a11.526,11.526,0,0,1-4.517-4.839,15.309,15.309,0,0,1-1.559-6.937,15.928,15.928,0,0,1,1.721-7.313,13.444,13.444,0,0,1,4.732-5.216,12.082,12.082,0,0,1,6.721-1.882,16.553,16.553,0,0,1,5.861.914,9.484,9.484,0,0,1,3.6,2.312,4.429,4.429,0,0,1,.86,2.258,34.228,34.228,0,0,1,.161,3.818h-1.183a10.216,10.216,0,0,0-2.8-5.592,7.365,7.365,0,0,0-5.323-1.936,8.093,8.093,0,0,0-6.453,2.85c-1.559,1.936-2.366,5.162-2.366,9.679a15.266,15.266,0,0,0,2.151,8.442,7.285,7.285,0,0,0,6.614,3.334,9.415,9.415,0,0,0,5.108-1.452,10.776,10.776,0,0,0,3.764-4.248l1.4,1.075a12.374,12.374,0,0,1-4.624,4.893,13.867,13.867,0,0,1-6.883,1.559A12.987,12.987,0,0,1,162.976,50.587Z" transform="translate(-156.9 -24.4)" fill="#00537b"/>
        <path id="Path_40" data-name="Path 40" d="M230.872,51.388a7.869,7.869,0,0,1-3.334-4.14l-.914-2.258H215.977l-3.28,7.259h-2.1L222.376,25.9h1.774l8.926,21.347c1.022,2.473,2.42,3.818,4.14,3.979v1.022a8.774,8.774,0,0,1-1.936.215A10.256,10.256,0,0,1,230.872,51.388Zm-14.034-8.173h9.034l-4.409-10.432Z" transform="translate(-181.725 -25.093)" fill="#00537b"/>
        <path id="Path_41" data-name="Path 41" d="M282.645,51.434a15.358,15.358,0,0,1-3.764-4.517L274.9,40.25h-1.613V52.294h-5.216V31.162a6.271,6.271,0,0,0-.538-3.011,2.394,2.394,0,0,0-2.258-.968H264.9V26h11.023a17.683,17.683,0,0,1,7.474,1.506c2.2,1.022,3.334,2.957,3.334,5.807q0,5-6.453,6.614l4.194,6.99c1.559,2.635,3.226,4.087,4.947,4.409v1.022a3.465,3.465,0,0,1-1.183.269c-.538.054-1.075.108-1.559.108A6.684,6.684,0,0,1,282.645,51.434Zm-6.937-12.8a5.62,5.62,0,0,0,3.818-1.344,5.178,5.178,0,0,0,1.559-4.194,5.009,5.009,0,0,0-5.216-5.538,7.347,7.347,0,0,0-1.774.161l-.807.108V38.636Z" transform="translate(-206.827 -25.14)" fill="#00537b"/>
        <path id="Path_42" data-name="Path 42" d="M319.373,31.162a6.271,6.271,0,0,0-.538-3.011,2.394,2.394,0,0,0-2.258-.968H316.2V26h4.786a4.19,4.19,0,0,1,2.2.484,2.821,2.821,0,0,1,1.076,1.559,11.76,11.76,0,0,1,.323,3.119V50.52h13.766v1.774H319.373Z" transform="translate(-230.542 -25.14)" fill="#00537b"/>
        <path id="Path_43" data-name="Path 43" d="M372.8,27.774h-2.85a4.6,4.6,0,0,0-3.388,1.129,4.827,4.827,0,0,0-1.183,3.656H364.2V29.173c0-2.151,1.129-3.173,3.388-3.173h18.766v1.774h-8.335V52.348H372.8V27.774Z" transform="translate(-252.731 -25.14)" fill="#00537b"/>
        <path id="Path_44" data-name="Path 44" d="M420.191,50.533a12.859,12.859,0,0,1-4.678-5.055,15.647,15.647,0,0,1-1.613-7.1,15.328,15.328,0,0,1,1.613-7.1,12.126,12.126,0,0,1,4.678-5.055,13.87,13.87,0,0,1,13.766,0,12.356,12.356,0,0,1,4.624,5.055,15.647,15.647,0,0,1,1.613,7.1,15.328,15.328,0,0,1-1.613,7.1,12.356,12.356,0,0,1-4.624,5.055,12.793,12.793,0,0,1-6.883,1.828A12.923,12.923,0,0,1,420.191,50.533Zm12.529-3.119c1.344-2.1,1.99-5.108,1.99-8.98s-.645-6.883-1.99-8.98a6.378,6.378,0,0,0-5.646-3.173,6.233,6.233,0,0,0-5.592,3.173c-1.344,2.1-1.99,5.108-1.99,8.98s.645,6.883,1.99,8.98a6.562,6.562,0,0,0,11.238,0Z" transform="translate(-275.707 -24.4)" fill="#00537b"/>
        <path id="Path_45" data-name="Path 45" d="M477.207,32.514V52.3h-1.99V30.686a3.957,3.957,0,0,0-.807-2.635,3.446,3.446,0,0,0-2.8-.968H471.4V25.9h2.8a9.994,9.994,0,0,1,3.656.591,5.244,5.244,0,0,1,2.366,1.828L493.93,44.29V25.9h1.99V52.356h-1.828Z" transform="translate(-302.288 -25.093)" fill="#00537b"/>
      </g>
    </g>
    <g id="Group_306" data-name="Group 306" transform="translate(457.045 90.04)">
      <g id="Group_305" data-name="Group 305">
        <path id="Path_46" data-name="Path 46" d="M157.752,93.736a2.551,2.551,0,0,0-.215-1.237c-.161-.269-.43-.376-.914-.376H156.3V91.8h1.452a2.143,2.143,0,0,1,.914.161.887.887,0,0,1,.43.538,3.868,3.868,0,0,1,.108,1.237V101.8h5.754v.645h-7.205Z" transform="translate(-156.3 -91.477)" fill="#575756"/>
        <path id="Path_47" data-name="Path 47" d="M194.738,102.285a.887.887,0,0,1-.43-.538,3.869,3.869,0,0,1-.108-1.237V91.8h1.452v8.711a2.551,2.551,0,0,0,.215,1.237c.161.269.43.376.914.376h.323v.323h-1.452A2.143,2.143,0,0,1,194.738,102.285Z" transform="translate(-173.821 -91.477)" fill="#575756"/>
        <path id="Path_48" data-name="Path 48" d="M219.974,93.543a4.229,4.229,0,0,0-.753-1.291,1.794,1.794,0,0,0-1.022-.43V91.5h.538a3.241,3.241,0,0,1,1.559.43,3.069,3.069,0,0,1,1.237,1.613l2.742,6.506.968-2.2c.43-1.022,1.344-3.119,2.581-6.184h.753l-4.624,10.808h-.269Z" transform="translate(-184.915 -91.339)" fill="#575756"/>
        <path id="Path_49" data-name="Path 49" d="M259.152,93.736a2.551,2.551,0,0,0-.215-1.237c-.161-.269-.43-.376-.914-.376H257.7V91.8h6.883c.914,0,1.344.43,1.344,1.291v1.237H265.6c0-1.237-.7-1.882-2.043-1.882H260.55v4.194h4.356v.645H260.55V101.8h2.85a3,3,0,0,0,1.721-.43,2.715,2.715,0,0,0,1.022-1.344l.323.108-.538,1.506a1.188,1.188,0,0,1-1.237.807H259.1V93.736Z" transform="translate(-203.175 -91.477)" fill="#575756"/>
        <path id="Path_50" data-name="Path 50" d="M302.673,102.124a3.232,3.232,0,0,1-1.237-1.667l-.43-1.075H296.49l-1.291,3.065h-.7L299.017,91.8h.484l3.549,8.6a4.228,4.228,0,0,0,.753,1.291,1.794,1.794,0,0,0,1.022.43v.323a2.7,2.7,0,0,1-.645.108A3.206,3.206,0,0,1,302.673,102.124Zm-5.915-3.388h3.925l-1.936-4.678Z" transform="translate(-220.187 -91.477)" fill="#575756"/>
        <path id="Path_51" data-name="Path 51" d="M333.752,93.736a2.551,2.551,0,0,0-.215-1.237c-.161-.269-.43-.376-.914-.376H332.3V91.8h4.194a7.6,7.6,0,0,1,3.065.591,2.216,2.216,0,0,1,1.291,2.258,1.867,1.867,0,0,1-.538,1.344,3,3,0,0,1-1.559.968,3.805,3.805,0,0,1,2.1.86,2.469,2.469,0,0,1,.591,1.721,2.311,2.311,0,0,1-1.291,2.258,6.942,6.942,0,0,1-3.173.645h-3.226Zm3.011,3.011A3.189,3.189,0,0,0,338,96.478a2.628,2.628,0,0,0,.968-.753,1.738,1.738,0,0,0,.376-1.183,1.917,1.917,0,0,0-.43-1.237,2.464,2.464,0,0,0-1.129-.753,3.908,3.908,0,0,0-1.344-.215,5.212,5.212,0,0,0-1.237.161v4.194h1.559Zm2.258,4.571a1.946,1.946,0,0,0,.807-1.667,1.883,1.883,0,0,0-.807-1.667,3.89,3.89,0,0,0-2.258-.591H335.2v4.3a5.2,5.2,0,0,0,1.559.215A3.89,3.89,0,0,0,339.021,101.318Z" transform="translate(-237.662 -91.477)" fill="#575756"/>
        <path id="Path_52" data-name="Path 52" d="M373.266,101.739a5.069,5.069,0,0,1-1.774-2.043,6.3,6.3,0,0,1-.591-2.85,6.919,6.919,0,0,1,.591-2.85,4.91,4.91,0,0,1,7.044-2.043A5.069,5.069,0,0,1,380.31,94a6.3,6.3,0,0,1,.591,2.85,6.919,6.919,0,0,1-.591,2.85,4.91,4.91,0,0,1-7.044,2.043Zm4.409-.484a3.664,3.664,0,0,0,1.183-1.721,8.283,8.283,0,0,0,0-5.27,3.413,3.413,0,0,0-1.183-1.721,2.767,2.767,0,0,0-1.828-.591,3.094,3.094,0,0,0-1.828.591,3.665,3.665,0,0,0-1.183,1.721,8.284,8.284,0,0,0,0,5.27,3.414,3.414,0,0,0,1.183,1.721,2.768,2.768,0,0,0,1.828.592A2.976,2.976,0,0,0,377.675,101.255Z" transform="translate(-255.506 -91.2)" fill="#575756"/>
        <path id="Path_53" data-name="Path 53" d="M418.573,102.124a3.231,3.231,0,0,1-1.237-1.667l-.43-1.075H412.39l-1.29,3.065h-.7L414.917,91.8h.484l3.549,8.6a4.229,4.229,0,0,0,.753,1.291,1.794,1.794,0,0,0,1.022.43v.323a2.7,2.7,0,0,1-.645.108A3.387,3.387,0,0,1,418.573,102.124Zm-5.861-3.388h3.925L414.7,94.058Z" transform="translate(-273.766 -91.477)" fill="#575756"/>
        <path id="Path_54" data-name="Path 54" d="M455.344,102.124a6.135,6.135,0,0,1-1.4-1.828l-1.613-2.742H451.2V102.5h-1.452V93.736a2.55,2.55,0,0,0-.215-1.237c-.161-.269-.43-.376-.914-.376H448.3V91.8h4.194a6.851,6.851,0,0,1,2.8.591,2.258,2.258,0,0,1,1.237,2.312q0,2.178-2.581,2.742l1.667,2.85a5.474,5.474,0,0,0,1.075,1.4,2.14,2.14,0,0,0,1.129.484v.323a.833.833,0,0,1-.43.108c-.215,0-.376.054-.538.054A2.827,2.827,0,0,1,455.344,102.124Zm-1.828-5.377a3.345,3.345,0,0,0,1.022-.753,1.917,1.917,0,0,0,.43-1.237,1.962,1.962,0,0,0-.43-1.291,2.421,2.421,0,0,0-1.022-.753,2.871,2.871,0,0,0-1.075-.269,5.211,5.211,0,0,0-1.237.161v4.3a4.882,4.882,0,0,0,1.237.161C452.763,96.962,453.086,96.908,453.516,96.747Z" transform="translate(-291.287 -91.477)" fill="#575756"/>
        <path id="Path_55" data-name="Path 55" d="M486.552,93.736a2.551,2.551,0,0,0-.215-1.237c-.161-.269-.43-.376-.914-.376H485.1V91.8h4.248a7.1,7.1,0,0,1,4.732,1.4,4.8,4.8,0,0,1,1.613,3.872,5.272,5.272,0,0,1-.7,2.8,4.5,4.5,0,0,1-1.99,1.882,7.329,7.329,0,0,1-3.226.7h-3.173V93.736Zm5.323,7.582a4.121,4.121,0,0,0,1.506-1.667,5.312,5.312,0,0,0,.538-2.527,5.235,5.235,0,0,0-.538-2.473,4.122,4.122,0,0,0-1.506-1.667,4.359,4.359,0,0,0-2.2-.591,5.632,5.632,0,0,0-1.613.269v9.034a6.173,6.173,0,0,0,1.667.215A4.311,4.311,0,0,0,491.875,101.318Z" transform="translate(-308.298 -91.477)" fill="#575756"/>
      </g>
    </g>
    <g id="Group_338" data-name="Group 338" transform="translate(373 41)">
      <g id="Group_336" data-name="Group 336" transform="translate(0)">
        <g id="Group_335" data-name="Group 335">
          <g id="Group_307" data-name="Group 307" transform="translate(33.016 61.73)">
            <path id="Path_56" data-name="Path 56" d="M64.949,114.8H62.422a16.239,16.239,0,0,1-.86,5.323,3.148,3.148,0,0,0,0,1.99,2.025,2.025,0,0,0,.484.807,2.331,2.331,0,0,0,1.613.7,2.277,2.277,0,0,0,1.613-.645,2.342,2.342,0,0,0,.538-.86,3.148,3.148,0,0,0,0-1.99A16.239,16.239,0,0,1,64.949,114.8Z" transform="translate(-61.4 -114.8)" fill="#00537b"/>
          </g>
          <g id="Group_308" data-name="Group 308" transform="translate(33.016)">
            <path id="Path_57" data-name="Path 57" d="M62.422,8.819h2.527V8.765a16.239,16.239,0,0,1,.86-5.323,2.983,2.983,0,0,0,0-1.936A2.025,2.025,0,0,0,65.325.7,2.122,2.122,0,0,0,63.712,0a2.341,2.341,0,0,0-2.151,1.559,3.148,3.148,0,0,0,0,1.99A17.173,17.173,0,0,1,62.422,8.819Z" transform="translate(-61.4)" fill="#00537b"/>
          </g>
          <g id="Group_309" data-name="Group 309" transform="translate(9.713 9.733)">
            <path id="Path_58" data-name="Path 58" d="M18.836,22.079a4.451,4.451,0,0,0,.807.591A16.763,16.763,0,0,1,24,25.843h0c.269-.323.538-.591.86-.914s.591-.591.914-.86h0A16.763,16.763,0,0,1,22.6,19.713a3.5,3.5,0,0,0-1.4-1.4,2.109,2.109,0,0,0-.968-.215h-.108a1.9,1.9,0,0,0-.753.161c-.054,0-.054.054-.108.054a1.175,1.175,0,0,0-.269.161c-.108.108-.215.161-.323.269a2.074,2.074,0,0,0-.591,1.183,2.486,2.486,0,0,0,.215,1.4A2.424,2.424,0,0,0,18.836,22.079Z" transform="translate(-18.064 -18.1)" fill="#00537b"/>
          </g>
          <g id="Group_310" data-name="Group 310" transform="translate(0 33.016)">
            <path id="Path_59" data-name="Path 59" d="M8.819,62.422a16.239,16.239,0,0,1-5.323-.86,2.984,2.984,0,0,0-1.936,0,2.025,2.025,0,0,0-.807.484A2.392,2.392,0,0,0,0,63.658a2.341,2.341,0,0,0,1.559,2.151,2.983,2.983,0,0,0,1.936,0,16.239,16.239,0,0,1,5.323-.86h0V62.422Z" transform="translate(0 -61.4)" fill="#00537b"/>
          </g>
          <g id="Group_311" data-name="Group 311" transform="translate(9.726 53.073)">
            <path id="Path_60" data-name="Path 60" d="M24.063,98.7h0a16.764,16.764,0,0,1-4.356,3.173,3.5,3.5,0,0,0-1.4,1.4,1.767,1.767,0,0,0-.215.914,2.263,2.263,0,0,0,.645,1.667,2.071,2.071,0,0,0,1.613.645,2.109,2.109,0,0,0,.968-.215,2.246,2.246,0,0,0,.807-.591,4.45,4.45,0,0,0,.591-.807,16.763,16.763,0,0,1,3.173-4.356h0c-.323-.269-.591-.538-.914-.86C24.6,99.291,24.332,99.023,24.063,98.7Z" transform="translate(-18.087 -98.7)" fill="#00537b"/>
          </g>
          <g id="Group_312" data-name="Group 312" transform="translate(53.019 9.679)">
            <path id="Path_61" data-name="Path 61" d="M100.428,25.8h0a16.763,16.763,0,0,1,4.356-3.173,2.246,2.246,0,0,0,.807-.591,4.452,4.452,0,0,0,.591-.807,1.767,1.767,0,0,0,.215-.914,2.112,2.112,0,0,0-.645-1.667A2.277,2.277,0,0,0,104.138,18a2.109,2.109,0,0,0-.968.215,3.5,3.5,0,0,0-1.4,1.4A16.764,16.764,0,0,1,98.6,23.969h0c.323.269.592.538.914.86C99.891,25.205,100.159,25.528,100.428,25.8Z" transform="translate(-98.6 -18)" fill="#00537b"/>
          </g>
          <g id="Group_313" data-name="Group 313" transform="translate(53.126 53.073)">
            <path id="Path_62" data-name="Path 62" d="M104.93,101.873a15.909,15.909,0,0,1-4.356-3.173h0c-.269.323-.591.591-.86.914-.323.323-.591.591-.914.86h0a16.764,16.764,0,0,1,3.173,4.356,2.246,2.246,0,0,0,.591.807,4.451,4.451,0,0,0,.807.591,2.109,2.109,0,0,0,.968.215h.43c.108,0,.161-.054.269-.054.054,0,.108-.054.161-.054l.323-.161a.167.167,0,0,0,.108-.054c.108-.108.269-.161.323-.269a2.074,2.074,0,0,0,.591-1.183,2.486,2.486,0,0,0-.215-1.4A3.5,3.5,0,0,0,104.93,101.873Z" transform="translate(-98.8 -98.7)" fill="#00537b"/>
          </g>
          <g id="Group_314" data-name="Group 314" transform="translate(61.676 33.016)">
            <path id="Path_63" data-name="Path 63" d="M122.873,62.1a2.341,2.341,0,0,0-.86-.538,3.148,3.148,0,0,0-1.99,0,16.239,16.239,0,0,1-5.323.86h0c0,.43.054.807.054,1.237A9.114,9.114,0,0,1,114.7,64.9h0a16.239,16.239,0,0,1,5.323.86,3.148,3.148,0,0,0,1.99,0,2.025,2.025,0,0,0,.807-.484,2.122,2.122,0,0,0,.7-1.613A1.748,1.748,0,0,0,122.873,62.1Z" transform="translate(-114.7 -61.4)" fill="#00537b"/>
          </g>
          <g id="Group_331" data-name="Group 331" transform="translate(11.346 11.346)">
            <g id="Group_316" data-name="Group 316" transform="translate(1.936 31.134)">
              <g id="Group_315" data-name="Group 315">
                <path id="Path_64" data-name="Path 64" d="M29.97,79,24.7,81.258A24.24,24.24,0,0,0,37.659,94l2.151-5.323A18.438,18.438,0,0,1,29.97,79ZM28.84,82.818a.485.485,0,0,1-.269.054.565.565,0,0,1-.484-.269.485.485,0,0,1-.054-.269.565.565,0,0,1,.269-.484.544.544,0,0,1,.753.215.485.485,0,0,1,.054.269A.642.642,0,0,1,28.84,82.818Zm3.441,4.248a.581.581,0,0,1-.376.161.488.488,0,0,1-.376-.161.581.581,0,0,1-.161-.376.488.488,0,0,1,.161-.376.565.565,0,0,1,.968.376A1.348,1.348,0,0,1,32.282,87.066Zm4.409,3.226a.565.565,0,0,1-.484.269.4.4,0,0,1-.269-.054.565.565,0,0,1-.269-.484.4.4,0,0,1,.054-.269.544.544,0,0,1,.753-.215.565.565,0,0,1,.269.484C36.8,90.077,36.745,90.185,36.691,90.292Z" transform="translate(-24.7 -79)" fill="#00537b"/>
              </g>
            </g>
            <g id="Group_318" data-name="Group 318" transform="translate(14.68)">
              <g id="Group_317" data-name="Group 317">
                <path id="Path_65" data-name="Path 65" d="M57.649,26.854a18.682,18.682,0,0,1,6.721,1.291l2.151-5.323A24.356,24.356,0,0,0,57.649,21.1,23.121,23.121,0,0,0,48.4,22.982l2.258,5.27A17.828,17.828,0,0,1,57.649,26.854ZM62.488,24.6a.51.51,0,0,1,.7-.376.524.524,0,0,1,.43.538v.161a.524.524,0,0,1-.538.43h-.161a.524.524,0,0,1-.43-.538Zm-4.893-1.129a.538.538,0,1,1-.538.538A.576.576,0,0,1,57.595,23.466Zm-5.538.753a.65.65,0,0,1,.7.376v.161a.524.524,0,0,1-.43.538h-.161a.524.524,0,0,1-.538-.43V24.7A.622.622,0,0,1,52.056,24.219Z" transform="translate(-48.4 -21.1)" fill="#00537b"/>
              </g>
            </g>
            <g id="Group_320" data-name="Group 320" transform="translate(15.056 40.759)">
              <g id="Group_319" data-name="Group 319">
                <path id="Path_66" data-name="Path 66" d="M57.972,98.3a18.682,18.682,0,0,1-6.721-1.291L49.1,102.331a24.356,24.356,0,0,0,8.872,1.721,23.121,23.121,0,0,0,9.249-1.882L64.963,96.9A18.415,18.415,0,0,1,57.972,98.3Zm-4.839,2.2a.524.524,0,0,1-.538.43h-.161A.566.566,0,0,1,52,100.4v-.161a.543.543,0,0,1,.7-.376.566.566,0,0,1,.43.538Zm4.893,1.129a.538.538,0,1,1,.538-.538A.578.578,0,0,1,58.026,101.632Zm5.538-.753H63.4a.524.524,0,0,1-.538-.43v-.161a.524.524,0,0,1,.43-.538.616.616,0,0,1,.7.376v.161A.544.544,0,0,1,63.565,100.879Z" transform="translate(-49.1 -96.9)" fill="#00537b"/>
              </g>
            </g>
            <g id="Group_322" data-name="Group 322" transform="translate(1.774 1.936)">
              <g id="Group_321" data-name="Group 321">
                <path id="Path_67" data-name="Path 67" d="M39.349,29.97,37.09,24.7A23.963,23.963,0,0,0,24.4,37.659l5.323,2.151A18.342,18.342,0,0,1,39.349,29.97Zm-3.6-1.882a.544.544,0,0,1,.753.215.485.485,0,0,1,.054.269.565.565,0,0,1-.269.484.485.485,0,0,1-.269.054.565.565,0,0,1-.484-.269.585.585,0,0,1-.054-.269A.565.565,0,0,1,35.746,28.088Zm-4.463,3.388a.565.565,0,0,1,.968.376.488.488,0,0,1-.161.376.581.581,0,0,1-.376.161.488.488,0,0,1-.376-.161.6.6,0,0,1-.054-.753Zm-2.42,5.055a.565.565,0,0,1-.484.269.4.4,0,0,1-.269-.054.565.565,0,0,1-.269-.484.485.485,0,0,1,.054-.269.544.544,0,0,1,.753-.215.565.565,0,0,1,.269.484A.585.585,0,0,1,28.863,36.53Z" transform="translate(-24.4 -24.7)" fill="#00537b"/>
              </g>
            </g>
            <g id="Group_324" data-name="Group 324" transform="translate(0 15.056)">
              <g id="Group_323" data-name="Group 323">
                <path id="Path_68" data-name="Path 68" d="M26.854,57.972a18.682,18.682,0,0,1,1.291-6.721L22.821,49.1A24.356,24.356,0,0,0,21.1,57.972a23.121,23.121,0,0,0,1.882,9.249l5.27-2.258A17.635,17.635,0,0,1,26.854,57.972Zm-2.635-5.538a.543.543,0,0,1,.7-.376.524.524,0,0,1,.43.538v.161a.524.524,0,0,1-.538.43h-.161a.524.524,0,0,1-.43-.538Zm-.753,5.592a.538.538,0,1,1,.538.538A.539.539,0,0,1,23.466,58.026Zm1.452,5.969h-.161a.524.524,0,0,1-.538-.43V63.4a.524.524,0,0,1,.43-.538.616.616,0,0,1,.7.376V63.4A.583.583,0,0,1,24.918,63.995Z" transform="translate(-21.1 -49.1)" fill="#00537b"/>
              </g>
            </g>
            <g id="Group_326" data-name="Group 326" transform="translate(31.134 30.811)">
              <g id="Group_325" data-name="Group 325">
                <path id="Path_69" data-name="Path 69" d="M79,88.24l2.258,5.27A24.24,24.24,0,0,0,94,80.551L88.679,78.4A18.438,18.438,0,0,1,79,88.24Zm3.6,1.936a.485.485,0,0,1-.269.054.565.565,0,0,1-.484-.269.485.485,0,0,1-.054-.269.565.565,0,0,1,.269-.484.544.544,0,0,1,.753.215.485.485,0,0,1,.054.269A.565.565,0,0,1,82.6,90.176Zm4.463-3.441a.581.581,0,0,1-.376.161.488.488,0,0,1-.376-.161.552.552,0,1,1,.968-.376A.683.683,0,0,1,87.066,86.735Zm2.42-5a.544.544,0,0,1,.753-.215.565.565,0,0,1,.269.484.4.4,0,0,1-.054.269.565.565,0,0,1-.484.269.4.4,0,0,1-.269-.054A.565.565,0,0,1,89.432,82,.485.485,0,0,1,89.485,81.734Z" transform="translate(-79 -78.4)" fill="#00537b"/>
              </g>
            </g>
            <g id="Group_328" data-name="Group 328" transform="translate(30.811 1.721)">
              <g id="Group_327" data-name="Group 327">
                <path id="Path_70" data-name="Path 70" d="M88.24,39.3l5.27-2.258A24.24,24.24,0,0,0,80.551,24.3L78.4,29.623A18.624,18.624,0,0,1,88.24,39.3Zm1.129-3.818a.544.544,0,0,1,.753.215.485.485,0,0,1,.054.269.565.565,0,0,1-.269.484.323.323,0,0,1-.215.054.565.565,0,0,1-.484-.269.485.485,0,0,1-.054-.269A.434.434,0,0,1,89.369,35.485Zm-3.441-4.248a.552.552,0,1,1,.43.914.488.488,0,0,1-.376-.161.581.581,0,0,1-.161-.376A.356.356,0,0,1,85.928,31.237ZM81.465,28.01a.544.544,0,0,1,.753-.215.565.565,0,0,1,.269.484.485.485,0,0,1-.054.269.565.565,0,0,1-.484.269.4.4,0,0,1-.269-.054.565.565,0,0,1-.269-.484A.585.585,0,0,1,81.465,28.01Z" transform="translate(-78.4 -24.3)" fill="#00537b"/>
              </g>
            </g>
            <g id="Group_330" data-name="Group 330" transform="translate(40.759 14.68)">
              <g id="Group_329" data-name="Group 329">
                <path id="Path_71" data-name="Path 71" d="M102.17,48.4,96.9,50.658A17.9,17.9,0,0,1,98.3,57.7a18.682,18.682,0,0,1-1.291,6.721l5.323,2.151a24.356,24.356,0,0,0,1.721-8.872A25.18,25.18,0,0,0,102.17,48.4Zm-1.99,3.226a.616.616,0,0,1,.7.376v.161a.566.566,0,0,1-.43.538h-.161a.524.524,0,0,1-.538-.43h0V52.11A.656.656,0,0,1,100.18,51.626Zm.7,11.615a.524.524,0,0,1-.538.43h-.161a.524.524,0,0,1-.43-.538v-.161a.543.543,0,0,1,.7-.376.524.524,0,0,1,.43.538C100.933,63.133,100.933,63.187,100.879,63.241Zm.161-5a.539.539,0,0,1-.538-.538v-.108a.538.538,0,1,1,1.075,0V57.7A.506.506,0,0,1,101.04,58.24Z" transform="translate(-96.9 -48.4)" fill="#00537b"/>
              </g>
            </g>
          </g>
          <g id="Group_334" data-name="Group 334" transform="translate(23.522 20.595)">
            <g id="Group_333" data-name="Group 333">
              <g id="Group_332" data-name="Group 332">
                <path id="Path_72" data-name="Path 72" d="M65.659,53.033h0l-.161-.215-.108.215-.054.054h0c-1.183,1.721-1.667,2.8-1.506,3.226.054.161.161.161.161.161h.86a6.151,6.151,0,0,1-2.258,4.087l.054.054a4.7,4.7,0,0,1-.538.43c0-.054,0-.054-.054-.108-.054.054-.108.054-.161.108,0,.054,0,.054.054.108a4.728,4.728,0,0,1-.538.323.188.188,0,0,1-.054-.108c-.054.054-.108.054-.161.108,0,.054.054.054.054.108-.054.054-.108.054-.161.108a.2.2,0,0,1-.161-.054.053.053,0,0,0-.054.054A13.013,13.013,0,0,1,57.54,62.82a6.252,6.252,0,0,0-.215-.968h0c-.054,0-.108-.054-.161-.054-.108-.054-.215-.161-.323-.215a1.426,1.426,0,0,1-.269-.323c-.108-.108-.161-.269-.269-.376-.108-.161-.215-.376-.323-.538h.376a1,1,0,0,1,.376.108.742.742,0,0,1,.215.161c.054.108.161.161.215.269l.054.054h0a.682.682,0,0,0-.054-.323h0c-.054-.054-.054-.108-.108-.161h.108c-.376-3.549-.43-8.711-.43-11.991H58.4l.054-.054c.054-.054.108-.054.108-.108.054-.054.108-.054.161-.108s.108-.054.215-.054c.054,0,.108-.054.161-.054a.2.2,0,0,0,.161-.054,2.411,2.411,0,0,0,.591-.054,1.829,1.829,0,0,0,.538-.054,1.265,1.265,0,0,0,.43-.108.408.408,0,0,1-.108.215c-.054.054-.054.161-.108.215,0,0-.054.108-.108.108h1.129a1.133,1.133,0,0,0,.7.269,1.075,1.075,0,0,0,0-2.151,1.133,1.133,0,0,0-.7.269h-.269v.108c0,.054-.054.108-.054.161h0c-.054.054-.054.161-.108.215,0,.054-.054.054-.108.108l-.054.054c-.108.108-.161.161-.269.161a3.429,3.429,0,0,1-.376.108,1.658,1.658,0,0,1-.538.054h-.86c.054-.054.108-.161.161-.215a.537.537,0,0,1,.269-.215c.054-.054.108-.108.161-.108a.764.764,0,0,1,.323-.108c.054,0,.108-.054.215-.054.054,0,.108,0,.108-.054h.108c.054,0,.161-.054.215-.054a.408.408,0,0,0,.215-.108h.054c.108-.054.161-.054.269-.108h-.43c-.108.054-.215.054-.323.108-.054,0-.108.054-.161.054-.161.054-.269.054-.43.108h-.108c0-.054.054-.108.054-.161v-.054l.054-.054h-2.8v-1.4h.376v-.7c.215-.054.43-.161.43-.376s-.215-.323-.7-.43v-.591L57,43.139l-.054-.054a2.652,2.652,0,0,0,1.022-1.4l-.108-.108c-.054-.054-.054-.108-.108-.108a1.176,1.176,0,0,1-.161-.269c-.054-.054-.108-.161-.161-.215a1.176,1.176,0,0,1-.161-.269c-.054-.054-.108-.161-.161-.215s-.108-.161-.215-.215a1.172,1.172,0,0,0-.269-.215,1.41,1.41,0,0,1,.269.484.944.944,0,0,1,.215.269c.161.215.269.43.376.591a.188.188,0,0,1,.054.108h-.215a1,1,0,0,1-.376-.108h-.054a1.376,1.376,0,0,1-.807.914,1.4,1.4,0,0,0-.538-.269,1.2,1.2,0,0,0-.591.269.964.964,0,0,1-.376-.269h-.108a1.351,1.351,0,0,1-.323-.753h0c0-.108-.054-.215-.054-.323a1.446,1.446,0,0,1,1.452-1.452,1.377,1.377,0,0,1,1.022.43,1.488,1.488,0,0,1,.484-.054h.269c.108,0,.161.054.215.054a1.176,1.176,0,0,1,.269.161h0a2.179,2.179,0,0,1,.269.484h0A2.562,2.562,0,0,0,55.55,38.3a2.524,2.524,0,0,0-2.527,2.527,2.622,2.622,0,0,0,1.075,2.1l-.054.054-.054.054v.591c-.484.108-.7.215-.7.43s.215.323.43.376v.7h.323v1.4H49.366a1.133,1.133,0,0,0-.7-.269,1.075,1.075,0,1,0,0,2.151,1.133,1.133,0,0,0,.7-.269H54.1v2.527h0v.484h0v.161h0v.753h0v.161h0v.108h0c-.054,2.312-.161,4.732-.323,6.829h0c.054.054.108.054.161.108s.108.108.108.161h0c.054.108.054.215.108.323s.054.215.108.323.054.215.108.323c0,.054,0,.054.054.108,0,.054.054.108.054.161a1.348,1.348,0,0,0,.215.376.188.188,0,0,1,.054.108.682.682,0,0,1-.323-.054c-.054,0-.054-.054-.108-.054a.053.053,0,0,1-.054-.054c-.108-.054-.215-.161-.323-.215l-.054-.054a1.125,1.125,0,0,1-.215-.323h0v-.054a.682.682,0,0,1-.054.323v.054h0c-.108.7-.215,1.291-.323,1.828a11.628,11.628,0,0,1-3.334-1.129,6.812,6.812,0,0,1-3.872-5.216h.86q.081,0,.161-.161c.161-.43-.323-1.506-1.506-3.226h0l-.054-.054-.054.054-.161.161-.054.054h0c-1.183,1.721-1.667,2.8-1.506,3.226.054.161.161.161.161.161h.86a6.49,6.49,0,0,0,.538,3.388,9.1,9.1,0,0,0,2.42,3.226,17.911,17.911,0,0,0,5.431,3.011,5.523,5.523,0,0,1,2.043,1.075l.161.215.161-.215a6.452,6.452,0,0,1,2.043-1.075,16.7,16.7,0,0,0,5.431-3.011,8.51,8.51,0,0,0,2.42-3.226,6.542,6.542,0,0,0,.538-3.388h.86q.081,0,.161-.161C67.326,55.83,66.842,54.754,65.659,53.033ZM55.6,61.637a.764.764,0,0,1-.323-.108,1.176,1.176,0,0,1-.269-.161l-.269-.269a.279.279,0,0,1-.108-.215l-.161-.323c-.054-.054-.054-.161-.108-.215,0-.054,0-.054-.054-.108-.054-.161-.108-.376-.161-.538v-.054c.108,0,.161.054.269.054.054,0,.054,0,.108.054a.408.408,0,0,1,.215.108c.054,0,.108.054.161.108a.288.288,0,0,1,.161.215l.161.323c.054.161.161.323.215.484a3.084,3.084,0,0,0,.215.376c.054.108.161.215.215.323l.108.108A1.952,1.952,0,0,0,55.6,61.637Zm1.344.215h-.161c-.108,0-.215-.054-.323-.054l-.323-.161a.648.648,0,0,1-.269-.269,4.728,4.728,0,0,1-.323-.538c-.054-.161-.161-.323-.215-.484-.054-.108-.108-.269-.161-.376a.915.915,0,0,1,.376.054c.108.054.269.108.376.161a.42.42,0,0,1,.215.215c.108.215.215.376.323.591.108.161.161.269.269.43.108.108.215.269.323.376a.188.188,0,0,0,.108.054Z" transform="translate(-43.744 -38.3)" fill="#00537b"/>
              </g>
            </g>
          </g>
        </g>
      </g>
      <g id="Group_337" data-name="Group 337" transform="translate(29.359 22.208)">
        <path id="Path_73" data-name="Path 73" d="M70.169,42.514c.054.108.054.269.108.376l.108-.215c-.054-.108-.054-.215-.108-.323a2.882,2.882,0,0,0-.269-.591v-.054a.485.485,0,0,1,.269.054c.054,0,.108,0,.108.054a.188.188,0,0,1,.108.054c.108.054.161.108.269.161l.054-.161c-.108-.054-.161-.108-.269-.161h0c-.054,0-.108-.054-.161-.054s-.108-.054-.161-.054H69.9a3.11,3.11,0,0,1,.269.753Z" transform="translate(-61.673 -41.439)" fill="#71bade"/>
        <path id="Path_74" data-name="Path 74" d="M65.742,43c-.108-.054-.161-.108-.269-.161a4.575,4.575,0,0,0-.753-.484,1.988,1.988,0,0,0-.591-.269,1.081,1.081,0,0,1,.43-.215.965.965,0,0,1,.807.054,1.173,1.173,0,0,1,.269.215l.054.054A1.681,1.681,0,0,0,65.2,41.6a.053.053,0,0,0-.054.054,1.324,1.324,0,0,0-.645.054h0a2.014,2.014,0,0,0-.645.376,1.6,1.6,0,0,0-.591.215h0a.944.944,0,0,0-.269.215v.43h.054A.915.915,0,0,1,63.43,43a1.57,1.57,0,0,0,.484.108c.269.108.484.161.7.269.054,0,.054,0,.108.054a.742.742,0,0,1-.215.161.908.908,0,0,1-.538.161h-.645l.161.161h.591c.161-.054.323-.054.43-.161.108-.054.215-.161.323-.215h0l.054-.054h.43a.764.764,0,0,0,.323-.108h0c0-.054.054-.108.054-.161C65.8,43,65.742,43,65.742,43Zm-.269.161c-.054,0-.054,0-.108.054a.912.912,0,0,1-.538,0c-.108,0-.215-.054-.323-.054-.161-.054-.376-.108-.538-.161s-.323-.108-.538-.161a1.184,1.184,0,0,0-.43-.054l.323-.323a1.61,1.61,0,0,1,.43-.215h.323a3.29,3.29,0,0,1,.645.269,4.553,4.553,0,0,1,.753.538l.054.054A.053.053,0,0,1,65.473,43.159Z" transform="translate(-58.483 -41.439)" fill="#71bade"/>
        <path id="Path_75" data-name="Path 75" d="M67.8,41.3h0a1.656,1.656,0,0,0-.7.161,1.315,1.315,0,0,1,.484.591,1.425,1.425,0,0,1,.269.323c.161.215.269.43.376.591a.188.188,0,0,1,.054.108h-.215a1,1,0,0,1-.376-.108c0,.054-.054.108-.054.161h0a1.013,1.013,0,0,0,.43.108h.376l.108.108.108.108.054-.161c-.054-.054-.108-.054-.108-.108-.054-.054-.054-.108-.108-.108a1.175,1.175,0,0,1-.161-.269c-.054-.054-.108-.161-.161-.215a1.176,1.176,0,0,1-.161-.269c-.054-.054-.108-.161-.161-.215s-.108-.161-.215-.215a1.426,1.426,0,0,0-.323-.269,1.57,1.57,0,0,1,.484-.108h.269c.108,0,.161.054.215.054a1.175,1.175,0,0,1,.269.161h0a2.18,2.18,0,0,1,.269.484,1.806,1.806,0,0,0-.269-.753h-.108A1.034,1.034,0,0,0,67.8,41.3Z" transform="translate(-60.379 -41.3)" fill="#71bade"/>
        <path id="Path_76" data-name="Path 76" d="M70.968,42.323a.491.491,0,0,1,.161.269c0,.108.054.269.054.376v.538c0,.269-.054.538-.054.753v.108c-.054-.054-.161-.108-.215-.161a1.04,1.04,0,0,1-.269-.484c-.054-.108-.054-.215-.108-.323,0-.054-.054-.161-.054-.215,0-.108-.054-.215-.054-.323l-.108.215v.161c0,.108.054.269.054.376v.108c-.054-.054-.161-.054-.215-.108-.054,0-.054-.054-.108-.054,0,.054-.054.108-.054.161l.054.054a.2.2,0,0,0,.161.054c.054,0,.108.054.161.054h.108a.964.964,0,0,0,.269.376,1.125,1.125,0,0,0,.323.215h.054l.161.484a1.425,1.425,0,0,0,.269.323h0l.054.054a1.489,1.489,0,0,0,.054.484l.161.323h0l.054.054c0,.108-.054.215-.054.323h.161a.915.915,0,0,1,.054-.376c.054-.108.054-.215.108-.323s.108-.161.108-.269c.054-.108.108-.161.161-.269a.408.408,0,0,0,.108-.215c.054-.054.054-.161.108-.269a3.7,3.7,0,0,0,.161-.43.742.742,0,0,1,.161.215c.054.054.054.108.108.215a.323.323,0,0,1,.054.215c0,.054.054.161.054.215a.4.4,0,0,1-.054.269v.054a5.667,5.667,0,0,1-.376.591c-.108.108-.161.215-.269.323l.215-.054c.054-.108.161-.161.215-.269a1.175,1.175,0,0,0,.161-.269c.054-.108.108-.161.161-.269v-.054c0,.054.054.054.054.108s.054.054.054.108.054.161.054.215v.269h.161a.485.485,0,0,0-.054-.269h0a.764.764,0,0,0-.108-.323l-.161-.323v-.269a.764.764,0,0,0-.108-.323h0a1.525,1.525,0,0,0-.43-.591c0-.108-.054-.161-.108-.269a1.175,1.175,0,0,0-.161-.269h0c-.054-.108-.161-.161-.215-.269-.108-.054-.161-.161-.323-.215a.716.716,0,0,0-.161-.269c-.054-.054-.054-.108-.108-.108l-.108-.108h0c-.108-.054-.161-.161-.269-.215a2.622,2.622,0,0,0-.376-.161c-.054-.108-.161-.161-.269-.269l-.054.161C70.86,42.215,70.914,42.269,70.968,42.323Zm1.237,1.4c0-.108.054-.215.054-.323l.161.161.161.161a1.081,1.081,0,0,1,.215.43.343.343,0,0,1,0,.323c-.054.108-.054.215-.108.323-.054.161-.161.323-.215.484a1.125,1.125,0,0,1-.215.323l-.161.323a.188.188,0,0,0-.054.108c0-.054-.054-.054-.054-.108s-.054-.054-.054-.108a.93.93,0,0,1-.054-.538.682.682,0,0,1,.054-.323c.054-.108.054-.269.108-.43a1.57,1.57,0,0,0,.108-.484A.682.682,0,0,0,72.2,43.721Zm-.7-1.075.161.161a.964.964,0,0,1,.269.376.356.356,0,0,1,.054.323,3.147,3.147,0,0,1-.108.7c-.108.323-.161.645-.269.914v.108a.742.742,0,0,1-.161-.215,1.61,1.61,0,0,1-.215-.538c0-.108-.054-.215,0-.323a2.412,2.412,0,0,1,.054-.591v-.538a1.184,1.184,0,0,0-.054-.43A.214.214,0,0,1,71.506,42.645Z" transform="translate(-61.719 -41.624)" fill="#71bade"/>
        <path id="Path_77" data-name="Path 77" d="M70.154,44.8l-.054.161a.053.053,0,0,1,.054.054V44.8Z" transform="translate(-61.765 -42.918)" fill="#71bade"/>
        <path id="Path_78" data-name="Path 78" d="M75.043,50.176a.411.411,0,0,1-.108.269c-.054.054-.054.108-.108.161s-.108.108-.161.108c-.054.054-.161.108-.215.161s-.161.108-.215.161c-.108.054-.215.161-.323.215l-.323.161a.188.188,0,0,1-.108.054V51.2a1.911,1.911,0,0,1,.215-.484c.054-.054.054-.108.108-.161s.054-.108.108-.108l.161-.161.215-.215-.215.054-.108.108L73.7,50.5l-.054.054c-.108-.054-.108-.108-.108-.215v-.161h-.161v.161a.2.2,0,0,0,.054.161c0,.054.054.108.054.161h0v.054c-.054.161-.108.269-.161.43v.484a.965.965,0,0,0-.269.376c0,.054-.054.054-.054.108h.161v-.054a.836.836,0,0,1,.323-.43,1.173,1.173,0,0,1,.269-.215l.484-.323c.161-.108.269-.215.43-.323l.323-.323c0,.054.054.161.054.215v.215a1.57,1.57,0,0,1-.108.484.537.537,0,0,1-.215.269l-.323.161a.764.764,0,0,1-.323.108c-.108.054-.215.054-.323.108h.538a1.682,1.682,0,0,0,.538-.269.485.485,0,0,1-.054.269h.161v-.484a.411.411,0,0,0,.108-.269c0-.054.054-.108.054-.161v-.161h0a1.96,1.96,0,0,0-.108-.753.8.8,0,0,0,.054-.376h-.161C75.043,50.069,75.043,50.123,75.043,50.176Z" transform="translate(-63.106 -45.229)" fill="#71bade"/>
        <path id="Path_79" data-name="Path 79" d="M72.876,54.815a.764.764,0,0,1,.323-.108c.054,0,.108-.054.215-.054.054,0,.108,0,.108-.054h-.753v.161c-.054,0-.054.054-.108.054s-.054.054-.108.054l-.054.054h.269A.116.116,0,0,1,72.876,54.815Z" transform="translate(-62.875 -47.448)" fill="#71bade"/>
        <path id="Path_80" data-name="Path 80" d="M76.008,54.815c0,.054-.054.054-.108.108h.215c.054-.108.108-.161.161-.269h0V54.6h-.161C76.115,54.654,76.061,54.708,76.008,54.815Z" transform="translate(-64.447 -47.448)" fill="#71bade"/>
        <path id="Path_81" data-name="Path 81" d="M73.352,57.254c-.108.054-.161.108-.269.108H72.33c-.161,0-.269-.054-.43-.054l.161.161c.108,0,.215.054.376.054a2.179,2.179,0,0,0,.591,0h.054a.964.964,0,0,1-.269.376c-.054.054-.161.108-.215.161l.108.108c.054-.054.161-.108.215-.161h0a1.6,1.6,0,0,0,.376-.591c.108-.054.215-.161.323-.215h-.215A.053.053,0,0,1,73.352,57.254Z" transform="translate(-62.597 -48.65)" fill="#71bade"/>
        <path id="Path_82" data-name="Path 82" d="M73.169,54.2h-.215v.054c0,.054,0,.054-.054.108h.161C73.115,54.308,73.115,54.254,73.169,54.2Z" transform="translate(-63.06 -47.263)" fill="#71bade"/>
        <path id="Path_83" data-name="Path 83" d="M73.512,56.068l.161-.323a.777.777,0,0,0,.108-.376c.054-.054.108-.161.215-.215h-.215l-.054.054c-.108.108-.161.161-.269.161a3.427,3.427,0,0,1-.376.108,1.657,1.657,0,0,1-.538.054h-.86c.054-.054.108-.161.161-.215a.537.537,0,0,1,.269-.215h-.269l-.108.108a.867.867,0,0,0-.215.376v.108c-.054,0-.108.054-.161.054s-.108.054-.161.108l.108.108c.054-.054.108-.054.161-.108s.108-.054.215-.054c.054,0,.108-.054.161-.054a.2.2,0,0,0,.161-.054,2.411,2.411,0,0,0,.591-.054,1.829,1.829,0,0,0,.538-.054,1.265,1.265,0,0,0,.43-.108.408.408,0,0,1-.108.215c-.054.054-.054.161-.108.215a.648.648,0,0,1-.269.269H73.3a.279.279,0,0,0,.215-.108Z" transform="translate(-62.274 -47.679)" fill="#71bade"/>
        <path id="Path_84" data-name="Path 84" d="M76.3,54.315h.161c0-.054,0-.054.054-.108V54.1h-.161C76.354,54.208,76.354,54.261,76.3,54.315Z" transform="translate(-64.632 -47.217)" fill="#71bade"/>
        <path id="Path_85" data-name="Path 85" d="M73.354,54.361H74c.054,0,.161-.054.215-.054a.408.408,0,0,0,.215-.108h-.484c-.054,0-.108.054-.161.054C73.676,54.308,73.515,54.308,73.354,54.361Z" transform="translate(-63.245 -47.263)" fill="#71bade"/>
        <path id="Path_86" data-name="Path 86" d="M70.827,58.214a.682.682,0,0,1-.323.054c-.108,0-.215-.054-.376-.054a1.57,1.57,0,0,0-.484-.108c-.269-.054-.484-.161-.753-.215h-.108c.054-.054.161-.108.215-.161a2.247,2.247,0,0,1,.538-.215h.538c.108,0,.215.054.323.054l-.108-.215h-.161c-.108,0-.269-.054-.376-.054h-.323v.054h0v.054a1.91,1.91,0,0,0-.484.215.913.913,0,0,0-.323.323h0L68.569,58c-.108,0-.161.054-.269.054v.161c.054,0,.054,0,.108-.054a.682.682,0,0,1,.323-.054h.323c.108,0,.161.054.269.054s.215.054.323.054a1.591,1.591,0,0,0,.538.108,1.184,1.184,0,0,0,.43.054l-.323.323a1.347,1.347,0,0,1-.376.215.343.343,0,0,1-.323,0,3.031,3.031,0,0,1-.645-.215l-.484-.161a.188.188,0,0,1-.108-.054v.161c.215.054.43.161.645.215s.376.161.591.215a1.426,1.426,0,0,1-.323.269c-.108.054-.269.108-.376.161h-.323c-.054,0-.161-.054-.215-.054v.161c.054.054.161.054.215.108-.054.054-.161.108-.215.161v.161a1.45,1.45,0,0,0,.43-.376,1.2,1.2,0,0,0,.538-.161h0c.108-.054.161-.108.269-.161s.161-.161.269-.269a1.136,1.136,0,0,0,.538-.215h0a2.054,2.054,0,0,0,.484-.484c.054,0,.108-.054.161-.054s.108-.054.161-.108l-.108-.108C70.935,58.16,70.881,58.214,70.827,58.214Z" transform="translate(-60.933 -48.697)" fill="#71bade"/>
        <path id="Path_87" data-name="Path 87" d="M70.876,56.715c.054-.054.108-.054.108-.108l-.108-.108c-.054.054-.108.054-.108.108-.108.054-.161.161-.269.269h.215Q70.715,56.8,70.876,56.715Z" transform="translate(-61.95 -48.327)" fill="#71bade"/>
        <path id="Path_88" data-name="Path 88" d="M57.415,63.858a.408.408,0,0,1,.215-.108c.054,0,.108-.054.161-.054a.2.2,0,0,0,.161-.054h.323a.682.682,0,0,1,.323.054c.161.054.323.054.484.108.108.054.269.054.376.108a.648.648,0,0,1-.269.269.465.465,0,0,1-.323.161.407.407,0,0,1-.215.054H57.523l.161.161h.376c.215,0,.376.054.591.054h.054a.537.537,0,0,1-.215.269l-.161.161.108.108c.054-.054.108-.108.108-.161h0a.742.742,0,0,0,.161-.215c.054-.054.108-.161.161-.215a3.169,3.169,0,0,0,.43-.215h0a1.534,1.534,0,0,0,.376-.43,1.709,1.709,0,0,0,.484-.161h0c.054,0,.054-.054.108-.054v-.215a.742.742,0,0,1-.215.161l-.323.161c-.108,0-.215.054-.269,0-.108,0-.215-.054-.323-.054a1.57,1.57,0,0,0-.484-.108c-.108,0-.269-.054-.376-.054h-.484a.944.944,0,0,1,.215-.269A1.282,1.282,0,0,1,58.6,63a.2.2,0,0,0,.161-.054h.161a3.188,3.188,0,0,1,.914.215l.484.161v-.161a2.247,2.247,0,0,1-.538-.215,3.14,3.14,0,0,0-.968-.215h-.108l.215-.215a1.317,1.317,0,0,1,.645-.215h.376a1.662,1.662,0,0,1,.43.108v-.161c-.161-.054-.323-.108-.538-.161h-.108A1.176,1.176,0,0,1,60,61.923c.108-.054.269-.108.376-.161V61.6l-.484.161a1.1,1.1,0,0,0-.376.323v.054l-.054.054a2.621,2.621,0,0,0-.591.215,1.257,1.257,0,0,0-.376.376v.054l-.054.054a1.615,1.615,0,0,0-.591.323.742.742,0,0,0-.161.215c-.054.054-.054.054-.054.108a.188.188,0,0,1-.054.108v.108c-.054.054-.108.054-.215.108l-.161.161.108.108C57.254,63.912,57.308,63.858,57.415,63.858Z" transform="translate(-55.802 -50.684)" fill="#71bade"/>
        <path id="Path_89" data-name="Path 89" d="M55.191,70.793c0-.108-.054-.161,0-.269,0-.161.054-.269.054-.376a1.176,1.176,0,0,1,.161-.269c.054-.054.054-.108.108-.108.054-.054.054-.108.108-.108A2.34,2.34,0,0,1,56,69.341c.054-.054.108-.054.161-.108l.054-.054.108-.054c0,.054.054.108.054.161v.43a.408.408,0,0,1-.108.215h0c-.054.108-.108.161-.161.269-.054.054-.054.108-.108.161,0,.054-.054.108-.054.161-.054.108-.108.269-.161.376L56,70.793l.161-.323a.742.742,0,0,1,.161-.215c.054-.054.108-.161.161-.215v-.054c.054.108.108.161.161.269a.2.2,0,0,1,.054.161l.161-.054v-.108c0-.054,0-.054-.054-.108h0c0-.054-.054-.054-.054-.108s-.054-.054-.054-.108-.054-.054-.054-.108-.054-.054-.054-.108a.2.2,0,0,1,.054-.161v-.215h0a.406.406,0,0,0-.054-.215c0-.054-.054-.161-.054-.215.054-.054.054-.108.108-.161s.054-.108.054-.215h0c0-.054.054-.161.054-.215v-.269L56.8,68a.188.188,0,0,0,.054-.108.279.279,0,0,0,.108-.215h0c.054-.054.054-.161.108-.215,0-.054,0-.108.054-.108,0-.054,0-.108.054-.108s.054-.054.108-.054.054-.054.108-.054l-.108-.108c-.054.054-.108.054-.108.108a.411.411,0,0,1-.269.108H56.59a1.57,1.57,0,0,0-.484.108,1.885,1.885,0,0,0-.753.323c-.054,0-.054.054-.108.054a.764.764,0,0,1,.108-.323,1.125,1.125,0,0,1,.215-.323c.054-.054.054-.108.108-.161s.108-.108.161-.108c.054-.054.108-.054.161-.108a.2.2,0,0,1,.161-.054c.054,0,.161-.054.215-.054.108,0,.215-.054.323-.054l-.161-.161h-.161a1.266,1.266,0,0,0-.43.108c-.054,0-.054.054-.108.054L56,66.223l.161-.161-.269-.161-.161.161c-.054.054-.108.161-.161.215a.188.188,0,0,1-.054.108c0,.054-.054.108-.054.161v.108a2.105,2.105,0,0,0-.43.538c-.054.108-.054.161-.108.269,0,.108-.054.161-.054.269v.108c-.054.108-.108.161-.161.269a3.424,3.424,0,0,0-.108.376V68.8a.682.682,0,0,0,.054.323v.108a.8.8,0,0,0-.054.376v.43a.411.411,0,0,0,.108.269c.054.108.108.161.161.269v.054l.054.054a.585.585,0,0,0,.054.269c0,.108.054.161.054.269l.161-.054C55.245,70.955,55.245,70.847,55.191,70.793Zm-.376-2.258a1,1,0,0,1,.108-.376,1.125,1.125,0,0,1,.215-.323c.108-.108.215-.161.269-.269.108-.054.161-.108.269-.161s.215-.054.323-.108c.108,0,.161-.054.269-.054s.161-.054.269-.054.269-.054.376-.054c-.054.108-.054.215-.108.323a.537.537,0,0,1-.215.269c-.054.054-.161.108-.215.161-.215.054-.43.161-.591.215-.054.054-.161.054-.215.108a.408.408,0,0,1-.215.108c-.054.054-.161.108-.215.161l-.161.161c0,.054-.054.054-.054.108C54.815,68.8,54.815,68.7,54.815,68.535ZM55.03,70.2c0,.054,0,.054-.054.108a.2.2,0,0,1-.054-.161c0-.054-.054-.108-.054-.161v-.43a1,1,0,0,1,.108-.376c.054-.054.054-.108.108-.161s.054-.108.108-.161l.161-.161a.742.742,0,0,1,.215-.161A1.61,1.61,0,0,1,56,68.32c.108-.054.215-.054.269-.108.108-.054.161-.054.269-.108v.161a.2.2,0,0,1-.054.161c0,.054,0,.054-.054.108v.054c0,.054-.054.108-.054.161-.054.054-.108.161-.161.161a.944.944,0,0,0-.269.215.742.742,0,0,1-.215.161l-.108.108-.108.108c-.108.108-.161.215-.269.323A.866.866,0,0,0,55.03,70.2Z" transform="translate(-54.6 -52.672)" fill="#71bade"/>
        <path id="Path_90" data-name="Path 90" d="M58.773,77.488a1.175,1.175,0,0,1-.269-.161c-.108-.054-.161-.161-.269-.269-.054-.054-.054-.108-.108-.161a.2.2,0,0,1-.054-.161,1.266,1.266,0,0,1-.108-.43c0-.161-.054-.323-.054-.484v-.591l.323.161a.648.648,0,0,1,.269.269.411.411,0,0,1,.108.269,2179.043,2179.043,0,0,0,.108.323c.054.161.054.323.108.484a3.109,3.109,0,0,0,.269.753.188.188,0,0,1,.054.108.682.682,0,0,1,.054-.323c-.054-.108-.054-.161-.108-.269s-.054-.215-.108-.323c0-.108-.054-.161-.054-.269s-.054-.161-.054-.269-.054-.269-.054-.376c.108.054.215.054.323.108.054.054.108.054.161.108v-.161c-.054,0-.054-.054-.108-.054h0c-.161-.054-.323-.108-.538-.161a.913.913,0,0,0-.323-.323h0a3,3,0,0,0-.43-.269c0-.054,0-.054-.054-.108,0-.054-.054-.054-.054-.108l-.161-.161h0l-.161-.161a.743.743,0,0,0-.215-.161.323.323,0,0,0-.054-.215l-.161.054a.2.2,0,0,0,.054.161v.269c-.054.108-.054.215-.108.323-.054.161-.054.323-.108.484a2.037,2.037,0,0,0,0,.807c0,.054,0,.054.054.108a.537.537,0,0,1-.269-.215.944.944,0,0,1-.215-.269L56.3,75.5v-.43a.323.323,0,0,1,.054-.215.764.764,0,0,1,.108-.323l-.269.054c0,.054-.054.108-.054.161a1.184,1.184,0,0,0-.054.43v.108a.944.944,0,0,1-.215-.269c-.054-.054-.054-.108-.108-.215l-.161.054c.054.054.054.161.108.215a.742.742,0,0,0,.161.215l.215.215h.054l.054.054.161.323a1.173,1.173,0,0,0,.215.269c.054.054.161.108.215.161.054,0,.054.054.108.054a.188.188,0,0,1,.108.054h.108a2.053,2.053,0,0,0,.484.484A.408.408,0,0,0,57.8,77c.108.054.161.054.269.108h.108a1.932,1.932,0,0,0,.538.376.764.764,0,0,0,.323.108v-.161C58.988,77.541,58.88,77.488,58.773,77.488ZM57.7,76.842a1.177,1.177,0,0,1-.484-.538.2.2,0,0,1-.054-.161c0-.054-.054-.108-.054-.161a.682.682,0,0,0-.054-.323v-.323a.485.485,0,0,1,.054-.269c0-.108.054-.161.054-.269.054-.108.054-.269.108-.376l.054.054.054.054.108.108c.054.108.161.161.161.269a.485.485,0,0,1,.054.269v.645a2.812,2.812,0,0,0,.161.968c0,.054.054.054.054.108A.133.133,0,0,1,57.7,76.842Z" transform="translate(-55.062 -56.463)" fill="#71bade"/>
        <path id="Path_91" data-name="Path 91" d="M63.023,80.815c-.108-.054-.215-.161-.323-.215v.215c.108.054.215.161.323.215Z" transform="translate(-58.344 -59.468)" fill="#71bade"/>
        <path id="Path_92" data-name="Path 92" d="M62.9,77.7h0v.269h0c.054.108.054.215.108.323s.054.215.108.323.054.215.108.323a1.05,1.05,0,0,1,.054-.376c0-.054,0-.054-.054-.108-.054-.161-.108-.376-.161-.538v-.054c.108,0,.161.054.269.054v-.161h-.108A.682.682,0,0,0,62.9,77.7Z" transform="translate(-58.437 -58.127)" fill="#71bade"/>
        <path id="Path_93" data-name="Path 93" d="M62.669,77.784v-.269l-.161-.161c-.054-.054-.054-.054-.108-.054v.161c.054.054.108.054.161.108A.408.408,0,0,0,62.669,77.784Z" transform="translate(-58.206 -57.942)" fill="#71bade"/>
        <path id="Path_94" data-name="Path 94" d="M62.215,80.438h.054l.054.054v-.215l-.054-.054a1.125,1.125,0,0,1-.215-.323h0a.682.682,0,0,1-.054.323h0v.161c.054,0,.108.054.215.054Z" transform="translate(-58.021 -59.144)" fill="#71bade"/>
        <path id="Path_95" data-name="Path 95" d="M63.5,79.723c0,.054,0,.054.054.108l.054-.215c-.054-.054-.054-.161-.108-.215C63.554,79.508,63.5,79.615,63.5,79.723Z" transform="translate(-58.714 -58.913)" fill="#71bade"/>
        <path id="Path_96" data-name="Path 96" d="M63.708,78.015a.408.408,0,0,1,.215.108l.054-.161c-.054-.054-.108-.054-.215-.108h0c-.054,0-.108-.054-.161-.054v.161A.167.167,0,0,0,63.708,78.015Z" transform="translate(-58.761 -58.173)" fill="#71bade"/>
        <path id="Path_97" data-name="Path 97" d="M63.254,81l-.054.161c.054,0,.054.054.108.054v-.161A.053.053,0,0,1,63.254,81Z" transform="translate(-58.576 -59.653)" fill="#71bade"/>
        <path id="Path_98" data-name="Path 98" d="M70.229,81.052h0L70.337,81a1.048,1.048,0,0,0,.43.054v-.161a1.57,1.57,0,0,1-.484-.108l-.323-.161a3.244,3.244,0,0,1-.43-.43c-.108-.161-.215-.269-.323-.43-.054-.054-.108-.108-.108-.161a.682.682,0,0,0,.054.323c.108.108.161.269.269.376s.161.215.269.323l.269.269a.188.188,0,0,0,.108.054c-.108,0-.215.054-.323.054a.682.682,0,0,1-.323-.054c-.054,0-.108-.054-.161-.054a.2.2,0,0,0,.054.161,1.184,1.184,0,0,0,.43.054A.759.759,0,0,0,70.229,81.052Z" transform="translate(-61.303 -59.005)" fill="#71bade"/>
        <path id="Path_99" data-name="Path 99" d="M69.323,79.115c.161,0,.269.054.376.054.108.054.161.054.215.108h0a3.479,3.479,0,0,1,.43.484,1.425,1.425,0,0,1,.269.323v-.215c-.108-.054-.161-.161-.269-.269-.108-.161-.269-.269-.376-.43v-.054a.915.915,0,0,1,.376-.054h.215V78.9h-.215a.485.485,0,0,0-.269.054c-.108,0-.161.054-.269.054s-.269-.054-.484-.054H69v.161Z" transform="translate(-61.257 -58.682)" fill="#71bade"/>
        <path id="Path_100" data-name="Path 100" d="M65.712,78.43h-.591a.279.279,0,0,0-.215-.108c-.054-.054-.161-.054-.269-.108h0c-.108,0-.161-.054-.269-.054h-.323c-.054-.054-.161-.108-.215-.161l-.054.161c.054,0,.108.054.161.108a.288.288,0,0,1,.161.215l.161.323c.054.161.161.323.215.484a3.085,3.085,0,0,0,.215.376c.054.108.161.215.215.323l.108.108h-.323a.764.764,0,0,1-.323-.108,1.175,1.175,0,0,1-.269-.161l-.269-.269a.279.279,0,0,1-.108-.215l-.161-.323-.054.215c0,.054.054.108.054.161a1.347,1.347,0,0,0,.215.376.188.188,0,0,1,.054.108.682.682,0,0,1-.323-.054c-.054,0-.054-.054-.108-.054v.161c.054,0,.054,0,.108.054a1.658,1.658,0,0,0,.538.054h.108c.108.054.161.108.269.161s.215.054.323.108a.912.912,0,0,0,.538,0h.108c.108.054.161.108.269.108a.682.682,0,0,0,.323.054,2.017,2.017,0,0,0,.538-.054h.108c.054,0,.108.054.161.054a.2.2,0,0,0-.054-.161c-.054,0-.108-.054-.161-.054-.108-.054-.215-.161-.323-.215a1.426,1.426,0,0,1-.269-.323c-.108-.108-.161-.269-.269-.376-.108-.161-.215-.376-.323-.538h.376a1,1,0,0,1,.376.108.742.742,0,0,1,.215.161c.054.108.161.161.215.269l.054.054a.682.682,0,0,0-.054-.323c-.054-.054-.054-.108-.108-.161h.108v-.161c-.108,0-.161.054-.269.054A1.285,1.285,0,0,0,65.712,78.43Zm-.161.86c.108.161.161.269.269.43.108.108.215.269.323.376a.188.188,0,0,0,.108.054h-.323c-.108,0-.215-.054-.323-.054l-.323-.161a.648.648,0,0,1-.269-.269,4.729,4.729,0,0,1-.323-.538c-.054-.161-.161-.323-.215-.484-.054-.108-.108-.269-.161-.376a.915.915,0,0,1,.376.054c.108.054.269.108.376.161a.42.42,0,0,1,.215.215A1.194,1.194,0,0,0,65.551,79.291Z" transform="translate(-58.668 -58.266)" fill="#71bade"/>
        <path id="Path_101" data-name="Path 101" d="M74.8,82.1Z" transform="translate(-63.938 -60.161)" fill="#71bade"/>
        <path id="Path_102" data-name="Path 102" d="M74.8,82.1Z" transform="translate(-63.938 -60.161)" fill="#71bade"/>
        <path id="Path_103" data-name="Path 103" d="M74.8,82.1Z" transform="translate(-63.938 -60.161)" fill="#71bade"/>
        <path id="Path_104" data-name="Path 104" d="M74.8,82.1Z" transform="translate(-63.938 -60.161)" fill="#71bade"/>
        <path id="Path_105" data-name="Path 105" d="M74.7,81.8Z" transform="translate(-63.892 -60.022)" fill="#71bade"/>
        <path id="Path_106" data-name="Path 106" d="M72.061,78.976c.108.054.161.054.269.108s.161.161.269.215c.108.108.269.215.376.323s.215.161.323.269l.054.054a.053.053,0,0,1,.054.054.053.053,0,0,0,.054.054l.108.108.054.054c-.054,0-.054,0-.108.054h-.376a.682.682,0,0,1-.323-.054l-.323-.161-.161-.161c-.108-.054-.161-.161-.269-.215v.215l.108.108c.108.108.215.161.323.269.054,0,.054.054.108.054a.682.682,0,0,1-.323.054h-.215v.161h.215a.485.485,0,0,0,.269-.054c.108,0,.161-.054.269-.108h.86c.054,0,.108-.054.215-.054h.054c.108.054.161.054.269.108h0c.054-.054.108-.054.161-.108l-.484-.161a.944.944,0,0,1-.269-.215c-.054-.054-.161-.108-.215-.215l-.054-.054-.054-.054c-.054-.054-.108-.054-.108-.108-.108-.108-.269-.215-.376-.323s-.215-.161-.323-.269a1,1,0,0,1,.376-.108h.538c.054,0,.054,0,.108.054a.188.188,0,0,1,.108.054,4.848,4.848,0,0,1,.484.538c.215.269.323.538.484.753.054-.054.108-.054.161-.108,0-.054-.054-.054-.054-.108-.161-.215-.323-.484-.484-.753a3.478,3.478,0,0,0-.43-.484,1.489,1.489,0,0,1,.484-.054,1.57,1.57,0,0,1,.484.108.537.537,0,0,1,.269.215c.054.108.161.215.215.323s.054.161.108.269c0,.054.054.108.054.161.054-.054.108-.054.161-.108-.054-.108-.108-.269-.161-.376s-.161-.269-.215-.376a.485.485,0,0,1,.269.054c.108,0,.161.054.215.054.108.054.161.054.269.108.054.054.108.054.161.108.054-.054.108-.054.108-.108-.054-.054-.108-.054-.108-.108-.108-.054-.215-.161-.323-.161h0a1.709,1.709,0,0,0-.753-.108,1.147,1.147,0,0,0-.645-.161h0a1.588,1.588,0,0,0-.7.108h-.591c-.108,0-.161.054-.269.054-.108.054-.161.054-.269.108a4.479,4.479,0,0,0-.645-.054v.161Z" transform="translate(-62.597 -58.543)" fill="#71bade"/>
        <path id="Path_107" data-name="Path 107" d="M74.8,82.1Z" transform="translate(-63.938 -60.161)" fill="#71bade"/>
        <path id="Path_108" data-name="Path 108" d="M76.9,88.954a.188.188,0,0,1,.108-.054C76.954,88.9,76.954,88.9,76.9,88.954Z" transform="translate(-64.909 -63.305)" fill="#71bade"/>
        <path id="Path_109" data-name="Path 109" d="M79.7,90.754a.053.053,0,0,1,.054-.054.053.053,0,0,1-.054.054Z" transform="translate(-66.203 -64.137)" fill="#71bade"/>
        <path id="Path_110" data-name="Path 110" d="M76.854,89l-.054.054h0Z" transform="translate(-64.863 -63.351)" fill="#71bade"/>
        <path id="Path_111" data-name="Path 111" d="M79.381,83.123c0,.108.054.161.054.269v.269c0,.108-.054.161-.054.215a1.175,1.175,0,0,1-.161.269c-.108.054-.215.161-.323.215l-.323.161a1.91,1.91,0,0,0-.484.215c-.161.054-.269.108-.43.161a.188.188,0,0,1-.108.054c0-.108.054-.161.054-.269.054-.108.054-.161.108-.269,0-.054.054-.054.108-.108,0-.054.054-.054.054-.108a1.634,1.634,0,0,1-.376.269c0,.054-.054.108-.054.161a1.048,1.048,0,0,0-.054.43v.108a2.983,2.983,0,0,0-.323.43,1.013,1.013,0,0,0-.108.43v.108c-.054,0-.054.054-.108.054h0l-.054.054.161.108a.743.743,0,0,1,.215-.161l.323-.161c.161-.054.376-.108.591-.161l.484-.161c.108-.054.269-.108.376-.161a1.265,1.265,0,0,1-.108.43c-.054.054-.054.161-.108.215s-.108.108-.108.161c-.054.054-.161.108-.215.161h-.054l-.645.161h-.161l.215.108h.108c.215-.054.376-.054.591-.108h.054a2.622,2.622,0,0,1-.161.376.053.053,0,0,1-.054.054l.161.054h0a.053.053,0,0,1,.054-.054h0a1.926,1.926,0,0,0,.215-.591,1.094,1.094,0,0,0,.323-.484h0c.054-.108.054-.215.108-.323a.8.8,0,0,0,.054-.376,1.261,1.261,0,0,0,.269-.538h0a.682.682,0,0,0,.054-.323v-.376a.924.924,0,0,0,.108-.7h0v-.323c0-.054,0-.054-.054-.108,0-.054-.054-.108-.054-.161-.054.054-.108.108-.108.161C79.327,82.961,79.381,83.015,79.381,83.123Zm-.161,1.613a1.081,1.081,0,0,1-.215.43c-.054.108-.161.161-.215.215a.764.764,0,0,1-.323.108,1.57,1.57,0,0,1-.484.108c-.108.054-.269.054-.376.108s-.269.054-.376.108c-.054,0-.054,0-.108.054,0-.108.054-.161.108-.269a2.954,2.954,0,0,1,.376-.484c.108-.054.161-.161.269-.161.108-.054.269-.108.376-.161a1.61,1.61,0,0,0,.43-.215c.215-.108.376-.215.591-.323A1.489,1.489,0,0,1,79.22,84.736Z" transform="translate(-64.863 -60.485)" fill="#71bade"/>
        <path id="Path_112" data-name="Path 112" d="M76.615,89.008,76.4,88.9Z" transform="translate(-64.678 -63.305)" fill="#71bade"/>
        <path id="Path_113" data-name="Path 113" d="M77.882,90.083l-.161-.108c.054-.054.054-.108.108-.161l-.538-.269c-.108,0-.161.054-.269.054l-.161-.108c.108,0,.161-.054.269-.054l-.591-.323c-.054.054-.054.108-.108.108l-.161-.108c.054-.054.054-.108.108-.108l-.215-.108L76,89.223l1.936,1.129.215-.323-.161-.108C77.99,89.975,77.936,90.029,77.882,90.083Z" transform="translate(-64.493 -63.305)" fill="#71bade"/>
        <path id="Path_114" data-name="Path 114" d="M76.8,89.1Z" transform="translate(-64.863 -63.397)" fill="#71bade"/>
        <path id="Path_115" data-name="Path 115" d="M77.815,90.061c.108,0,.161-.054.269-.054l-.215-.108c-.108,0-.161.054-.269.054Z" transform="translate(-65.232 -63.767)" fill="#71bade"/>
        <path id="Path_116" data-name="Path 116" d="M79.361,90.915c.054-.054.054-.108.108-.161l-.161-.054c-.054.054-.054.108-.108.161Z" transform="translate(-65.972 -64.137)" fill="#71bade"/>
        <path id="Path_117" data-name="Path 117" d="M76.708,89.1c-.054.054-.054.108-.108.108l.161.108c.054-.054.054-.108.108-.108l-.161-.108Z" transform="translate(-64.77 -63.397)" fill="#71bade"/>
      </g>
    </g>
  </g>
</svg>
