<svg xmlns="http://www.w3.org/2000/svg" width="25.953" height="27.083" viewBox="0 0 25.953 27.083">
  <path id="skype_icon" data-name="skype icon" d="M26.008,16.815a13.184,13.184,0,0,0,.286-2.734A12.563,12.563,0,0,0,13.914,1.345a12.181,12.181,0,0,0-2.116.188A7,7,0,0,0,7.98.4,7.285,7.285,0,0,0,.8,7.787a7.527,7.527,0,0,0,.986,3.735,13.186,13.186,0,0,0-.251,2.56A12.562,12.562,0,0,0,13.912,26.818a12.1,12.1,0,0,0,2.267-.212,6.991,6.991,0,0,0,3.394.876,7.285,7.285,0,0,0,7.18-7.386,7.515,7.515,0,0,0-.745-3.282ZM20.264,20.17a5.674,5.674,0,0,1-2.515,1.962,9.808,9.808,0,0,1-3.868.7,9.219,9.219,0,0,1-4.433-.956A5.869,5.869,0,0,1,7.41,20.017a4.158,4.158,0,0,1-.791-2.3,1.623,1.623,0,0,1,.515-1.2,1.8,1.8,0,0,1,1.292-.5,1.617,1.617,0,0,1,1.09.391,2.9,2.9,0,0,1,.725,1.09,6.517,6.517,0,0,0,.712,1.3,2.772,2.772,0,0,0,1.037.827,4.186,4.186,0,0,0,1.8.327,4.266,4.266,0,0,0,2.494-.667,1.882,1.882,0,0,0,.917-1.59,1.585,1.585,0,0,0-.48-1.209,3.4,3.4,0,0,0-1.32-.749q-1.122-.341-2.272-.578a18,18,0,0,1-3.243-1,5.339,5.339,0,0,1-2.127-1.6A4.053,4.053,0,0,1,6.957,10,4.218,4.218,0,0,1,7.8,7.426a5.265,5.265,0,0,1,2.4-1.717,10.253,10.253,0,0,1,3.634-.59,9.6,9.6,0,0,1,2.887.391A6.347,6.347,0,0,1,18.765,6.56a4.538,4.538,0,0,1,1.2,1.391A3.148,3.148,0,0,1,20.357,9.4a1.757,1.757,0,0,1-.509,1.229,1.668,1.668,0,0,1-1.269.546,1.542,1.542,0,0,1-1.066-.341,4.049,4.049,0,0,1-.739-1.011,4.154,4.154,0,0,0-1.112-1.413,3.4,3.4,0,0,0-2.068-.494,3.782,3.782,0,0,0-2.143.546,1.464,1.464,0,0,0-.769,1.222,1.132,1.132,0,0,0,.248.741,2.234,2.234,0,0,0,.738.578,5.3,5.3,0,0,0,.994.4c.344.1.922.243,1.714.433a28.29,28.29,0,0,1,2.735.735,8.774,8.774,0,0,1,2.119.994,4.311,4.311,0,0,1,1.4,1.518,4.643,4.643,0,0,1,.5,2.243,4.923,4.923,0,0,1-.865,2.844Z" transform="translate(-0.8 -0.4)" fill="#fff"/>
</svg>
