<svg id="sun_icon" data-name="sun icon" xmlns="http://www.w3.org/2000/svg" width="45.16" height="45.16" viewBox="0 0 45.16 45.16">
  <g id="Group_579" data-name="Group 579">
    <g id="Path_2087" data-name="Path 2087" fill="none">
      <path d="M22.58,11.269A11.312,11.312,0,1,0,33.891,22.581,11.325,11.325,0,0,0,22.58,11.269Z" stroke="none"/>
      <path d="M 22.57999992370605 15.26900100708008 C 18.5487003326416 15.26900100708008 15.26899909973145 18.54915046691895 15.26899909973145 22.58100128173828 C 15.26899909973145 26.61285209655762 18.5487003326416 29.89300155639648 22.57999992370605 29.89300155639648 C 26.61129951477051 29.89300155639648 29.89099884033203 26.61285209655762 29.89099884033203 22.58100128173828 C 29.89099884033203 18.54915046691895 26.61129951477051 15.26900100708008 22.57999992370605 15.26900100708008 M 22.57999992370605 11.26900100708008 C 28.81599998474121 11.26900100708008 33.89099884033203 16.3430004119873 33.89099884033203 22.58100128173828 C 33.89099884033203 28.81900215148926 28.81599998474121 33.89300155639648 22.57999992370605 33.89300155639648 C 16.3430004119873 33.89300155639648 11.26900100708008 28.81800079345703 11.26900100708008 22.58100128173828 C 11.26900100708008 16.34400177001953 16.3430004119873 11.26900100708008 22.57999992370605 11.26900100708008 Z" stroke="none" fill="#fff"/>
    </g>
    <g id="Group_578" data-name="Group 578">
      <g id="Group_570" data-name="Group 570">
        <path id="Path_2088" data-name="Path 2088" d="M22.58,7.944a2.207,2.207,0,0,1-2.207-2.206V2.207a2.207,2.207,0,0,1,4.414,0V5.738A2.207,2.207,0,0,1,22.58,7.944Z" fill="#fff"/>
      </g>
      <g id="Group_571" data-name="Group 571">
        <path id="Path_2089" data-name="Path 2089" d="M22.58,37.215a2.207,2.207,0,0,0-2.207,2.207v3.53a2.207,2.207,0,1,0,4.414,0v-3.53A2.208,2.208,0,0,0,22.58,37.215Z" fill="#fff"/>
      </g>
      <g id="Group_572" data-name="Group 572">
        <path id="Path_2090" data-name="Path 2090" d="M32.928,12.231a2.208,2.208,0,0,1,0-3.121l2.5-2.5a2.207,2.207,0,0,1,3.121,3.121l-2.5,2.5A2.207,2.207,0,0,1,32.928,12.231Z" fill="#fff"/>
      </g>
      <g id="Group_573" data-name="Group 573">
        <path id="Path_2091" data-name="Path 2091" d="M12.231,32.93a2.2,2.2,0,0,0-3.121,0l-2.5,2.5a2.207,2.207,0,0,0,3.121,3.121l2.5-2.5A2.2,2.2,0,0,0,12.231,32.93Z" fill="#fff"/>
      </g>
      <g id="Group_574" data-name="Group 574">
        <path id="Path_2092" data-name="Path 2092" d="M37.215,22.58a2.207,2.207,0,0,1,2.207-2.207h3.531a2.207,2.207,0,1,1,0,4.413H39.422A2.206,2.206,0,0,1,37.215,22.58Z" fill="#fff"/>
      </g>
      <g id="Group_575" data-name="Group 575">
        <path id="Path_2093" data-name="Path 2093" d="M7.944,22.58a2.207,2.207,0,0,0-2.207-2.207H2.207a2.207,2.207,0,1,0,0,4.413H5.738A2.206,2.206,0,0,0,7.944,22.58Z" fill="#fff"/>
      </g>
      <g id="Group_576" data-name="Group 576">
        <path id="Path_2094" data-name="Path 2094" d="M32.928,32.93a2.208,2.208,0,0,1,3.121,0l2.5,2.5a2.207,2.207,0,0,1-3.121,3.12l-2.5-2.5A2.205,2.205,0,0,1,32.928,32.93Z" fill="#fff"/>
      </g>
      <g id="Group_577" data-name="Group 577">
        <path id="Path_2095" data-name="Path 2095" d="M12.231,12.231a2.207,2.207,0,0,0,0-3.121l-2.5-2.5a2.207,2.207,0,0,0-3.121,3.12l2.5,2.5A2.2,2.2,0,0,0,12.231,12.231Z" fill="#fff"/>
      </g>
    </g>
  </g>
</svg>
