<svg xmlns="http://www.w3.org/2000/svg" width="57.845" height="45.16" viewBox="0 0 57.845 45.16">
  <g id="water_icon" data-name="water icon" transform="translate(6.981 -232.99)">
    <g id="Group_582" data-name="Group 582" transform="translate(-6.971 249.084)">
      <g id="Group_581" data-name="Group 581" transform="translate(0)">
        <path id="Path_2096" data-name="Path 2096" d="M49.424,364.346a2.416,2.416,0,0,0-2.962.381,8.2,8.2,0,0,1-9.8,1.453,7.728,7.728,0,0,1-2.926-2.926,2.993,2.993,0,0,0-4.788,0,8.145,8.145,0,0,1-10.907,2.926,7.728,7.728,0,0,1-2.926-2.926,2.993,2.993,0,0,0-4.788,0A8.145,8.145,0,0,1-.584,366.179a8.173,8.173,0,0,1-1.8-1.405,2.449,2.449,0,0,0-3.02-.407l-.3.174a2.426,2.426,0,0,0-.548,3.743,13.2,13.2,0,0,0,9.654,4.279,13.548,13.548,0,0,0,9.311-3.99,13.008,13.008,0,0,0,18.355.266l.266-.266a13.41,13.41,0,0,0,18.888-.266l.024-.024a2.4,2.4,0,0,0-.5-3.746Z" transform="translate(6.897 -362.056)" fill="#fff"/>
      </g>
    </g>
    <g id="Group_584" data-name="Group 584" transform="translate(-6.981 267.706)">
      <g id="Group_583" data-name="Group 583">
        <path id="Path_2097" data-name="Path 2097" d="M49.361,513.685a2.419,2.419,0,0,0-2.981.413,8.027,8.027,0,0,1-5.8,2.478,7.938,7.938,0,0,1-6.917-3.99,2.993,2.993,0,0,0-4.788,0,8.145,8.145,0,0,1-10.907,2.926,7.727,7.727,0,0,1-2.926-2.926,2.993,2.993,0,0,0-4.788,0A8.145,8.145,0,0,1-.657,515.512a8.17,8.17,0,0,1-1.8-1.405,2.449,2.449,0,0,0-3.02-.407l-.3.178a2.422,2.422,0,0,0-.545,3.746,13.492,13.492,0,0,0,16.575,2.144,8.285,8.285,0,0,0,2.394-1.862A13.008,13.008,0,0,0,31,518.173l.266-.266a13.41,13.41,0,0,0,18.888-.266l.024-.024a2.4,2.4,0,0,0-.5-3.746Z" transform="translate(6.981 -511.389)" fill="#fff"/>
      </g>
    </g>
    <g id="Group_586" data-name="Group 586" transform="translate(19.294 238.311)">
      <g id="Group_585" data-name="Group 585" transform="translate(0 0)">
        <circle id="Ellipse_77" data-name="Ellipse 77" cx="2.66" cy="2.66" r="2.66" fill="#fff"/>
      </g>
    </g>
    <g id="Group_588" data-name="Group 588" transform="translate(37.916 243.631)">
      <g id="Group_587" data-name="Group 587">
        <circle id="Ellipse_78" data-name="Ellipse 78" cx="2.66" cy="2.66" r="2.66" fill="#fff"/>
      </g>
    </g>
    <g id="Group_590" data-name="Group 590" transform="translate(35.256 232.99)">
      <g id="Group_589" data-name="Group 589">
        <circle id="Ellipse_79" data-name="Ellipse 79" cx="2.66" cy="2.66" r="2.66" fill="#fff"/>
      </g>
    </g>
  </g>
</svg>
