<svg xmlns="http://www.w3.org/2000/svg" width="27" height="27" viewBox="0 0 27 27">
  <path id="whatsapp_icon" data-name="whatsapp icon" d="M26.066,6.924A13.418,13.418,0,0,0,4.906,23.068L3,30l7.127-1.862a13.5,13.5,0,0,0,6.424,1.629h.006A13.431,13.431,0,0,0,30,16.388a13.271,13.271,0,0,0-3.934-9.464M16.557,27.51h0a11.192,11.192,0,0,1-5.689-1.552l-.406-.241-4.229,1.1,1.128-4.1-.265-.42A11.16,11.16,0,0,1,24.461,8.52a11.032,11.032,0,0,1,3.269,7.868A11.164,11.164,0,0,1,16.557,27.51m6.129-8.33c-.337-.168-1.987-.976-2.3-1.088s-.53-.167-.755.167-.869,1.086-1.065,1.31-.392.25-.728.083a9.185,9.185,0,0,1-2.7-1.659,10.078,10.078,0,0,1-1.869-2.316c-.2-.335-.021-.516.148-.683.151-.149.335-.39.5-.586a2.284,2.284,0,0,0,.335-.557.608.608,0,0,0-.028-.586c-.084-.168-.756-1.814-1.036-2.483-.271-.648-.548-.562-.755-.571s-.428-.013-.642-.012a1.239,1.239,0,0,0-.9.417,3.74,3.74,0,0,0-1.176,2.789A6.5,6.5,0,0,0,11.1,16.865a14.948,14.948,0,0,0,5.738,5.048,19.927,19.927,0,0,0,1.915.7,4.636,4.636,0,0,0,2.116.133,3.456,3.456,0,0,0,2.267-1.589,2.785,2.785,0,0,0,.2-1.59c-.084-.14-.31-.225-.644-.392" transform="translate(-3 -3)" fill="#fff" fill-rule="evenodd"/>
</svg>
