<svg xmlns="http://www.w3.org/2000/svg" width="22.318" height="27" viewBox="0 0 22.318 27">
  <g id="youtube_icon" data-name="youtube icon" transform="translate(-773 -2433)">
    <path id="Subtraction_1" data-name="Subtraction 1" d="M11.324,10.291a.831.831,0,0,1-.873-.565,3.93,3.93,0,0,1-.12-1.129v-6h1.351V8.184a3.171,3.171,0,0,0,.017.536c.03.213.137.321.318.321.271,0,.559-.217.857-.644V2.6h1.356v7.589H12.873V9.358A2.186,2.186,0,0,1,11.324,10.291Zm-4.112,0a1.846,1.846,0,0,1-1.579-.777,2.952,2.952,0,0,1-.425-1.785V5.07a2.97,2.97,0,0,1,.425-1.788A1.844,1.844,0,0,1,7.212,2.5a1.848,1.848,0,0,1,1.582.778A3,3,0,0,1,9.215,5.07V7.729a3.02,3.02,0,0,1-.421,1.785A1.85,1.85,0,0,1,7.212,10.291Zm0-6.549c-.436,0-.647.344-.647,1.051V7.987c0,.709.212,1.053.647,1.053s.647-.345.647-1.053V4.794C7.858,4.086,7.647,3.742,7.212,3.742ZM3.387,10.185h-1.5V6.061A25.328,25.328,0,0,0,.964,2.838C.808,2.374.647,1.9.49,1.442L.473,1.391C.334.984.161.478,0,0H1.582L2.65,4,3.675,0H5.2L3.387,6.061v4.124Z" transform="translate(777.066 2433)" fill="#fff"/>
    <path id="Subtraction_2" data-name="Subtraction 2" d="M11.727,15.7h-1.14A69.546,69.546,0,0,1,2.8,15.386,2.831,2.831,0,0,1,.389,13.173,24.235,24.235,0,0,1,0,7.85,24.455,24.455,0,0,1,.394,2.525,2.83,2.83,0,0,1,2.805.313,71.049,71.049,0,0,1,10.813,0h.7a71.06,71.06,0,0,1,8.008.313,2.831,2.831,0,0,1,2.412,2.212,24.138,24.138,0,0,1,.387,5.3V7.85a24.526,24.526,0,0,1-.391,5.323,2.831,2.831,0,0,1-2.412,2.213A69.549,69.549,0,0,1,11.727,15.7Zm1.659-3.7h0a1.844,1.844,0,0,0,1.393.831,1.072,1.072,0,0,0,1.079-.844,6.129,6.129,0,0,0,.136-1.514V7.476a5.923,5.923,0,0,0-.136-1.51,1.072,1.072,0,0,0-1.079-.848,1.833,1.833,0,0,0-1.393.815V2.64H12.038V12.722h1.349v-.727ZM6.992,5.21v5.94a3.878,3.878,0,0,0,.119,1.117.827.827,0,0,0,.869.559A2.143,2.143,0,0,0,9.521,11.9v.82h1.35V5.211H9.521v5.74c-.3.423-.583.637-.853.637-.179,0-.283-.1-.316-.318a3.994,3.994,0,0,1-.013-.529V5.21Zm12.084-.092a1.921,1.921,0,0,0-1.615.771,2.932,2.932,0,0,0-.417,1.768V10.29a2.928,2.928,0,0,0,.433,1.766,1.92,1.92,0,0,0,1.633.769,1.862,1.862,0,0,0,1.631-.813,1.981,1.981,0,0,0,.314-.816c.014-.154.029-.465.029-.877v-.2H19.707a9.008,9.008,0,0,1-.029.922.581.581,0,0,1-.6.546c-.463,0-.688-.341-.688-1.042V9.213h2.7V7.657a2.959,2.959,0,0,0-.417-1.768A1.867,1.867,0,0,0,19.076,5.118ZM2.093,2.64V4.06H3.68v8.662h1.5V4.06H6.8V2.64Zm11.965,8.947a.961.961,0,0,1-.672-.334V6.674a.968.968,0,0,1,.672-.331c.389,0,.587.345.587,1.025v3.206C14.646,11.246,14.448,11.587,14.059,11.587ZM19.736,8.08H18.388V7.385c0-.691.227-1.042.676-1.042s.673.35.673,1.042V8.08Z" transform="translate(773 2444.302)" fill="#fff"/>
  </g>
</svg>
